<svg class="animated" id="freepik_stories-drinking-coffee" xmlns="http://www.w3.org/2000/svg" viewBox="0 0 500 500" version="1.1" xmlns:xlink="http://www.w3.org/1999/xlink" xmlns:svgjs="http://svgjs.com/svgjs"><style>svg#freepik_stories-drinking-coffee:not(.animated) .animable {opacity: 0;}svg#freepik_stories-drinking-coffee.animated #freepik--background-complete--inject-224 {animation: 1.5s Infinite  linear floating;animation-delay: 0s;}svg#freepik_stories-drinking-coffee.animated #freepik--Speech_Bubble--inject-224 {animation: 1.5s Infinite  linear floating;animation-delay: 0s;}            @keyframes floating {                0% {                    opacity: 1;                    transform: translateY(0px);                }                50% {                    transform: translateY(-10px);                }                100% {                    opacity: 1;                    transform: translateY(0px);                }            }        .animator-hidden { display: none; }</style><g id="freepik--background-complete--inject-224" class="animable animator-hidden" style="transform-origin: 250px 235.645px;"><g id="elf4r5sebqoba" class="animable" style="transform-origin: 250px 235.645px;"><g id="el9vdkh9rruha" class="animable" style="transform-origin: 250px 223.865px;"><g id="elw4vcsdo85pr" class="animable" style="transform-origin: 249.335px 193.205px;"><path d="M443.92,330.7h-180.75c-3.23,0-5.86-2.63-5.86-5.86V61.57c0-3.23,2.63-5.86,5.86-5.86h180.75c3.23,0,5.86,2.63,5.86,5.86V324.84c0,3.23-2.63,5.86-5.86,5.86ZM263.17,55.96c-3.09,0-5.61,2.52-5.61,5.61V324.84c0,3.09,2.52,5.61,5.61,5.61h180.75c3.09,0,5.61-2.52,5.61-5.61V61.57c0-3.09-2.52-5.61-5.61-5.61h-180.75Z" style="fill: rgb(224, 224, 224); transform-origin: 353.545px 193.205px;" id="eljqbqxvdy9n9" class="animable"></path><path d="M235.49,330.7H54.75c-3.23,0-5.86-2.63-5.86-5.86V61.57c0-3.23,2.63-5.86,5.86-5.86H235.49c3.23,0,5.86,2.63,5.86,5.86V324.84c0,3.23-2.63,5.86-5.86,5.86ZM54.75,55.96c-3.09,0-5.61,2.52-5.61,5.61V324.84c0,3.09,2.52,5.61,5.61,5.61H235.49c3.09,0,5.61-2.52,5.61-5.61V61.57c0-3.09-2.52-5.61-5.61-5.61H54.75Z" style="fill: rgb(224, 224, 224); transform-origin: 145.12px 193.205px;" id="elkvhs9zss0kg" class="animable"></path></g><rect x="0" y="391.77" width="500" height=".25" style="fill: rgb(224, 224, 224); transform-origin: 250px 391.895px;" id="elx1ic4njoija" class="animable"></rect></g><rect x="51.67" y="406.04" width="16.06" height=".25" style="fill: rgb(224, 224, 224); transform-origin: 59.7px 406.165px;" id="elni1lnnsoyg" class="animable"></rect><rect x="170.35" y="403.33" width="53.53" height=".25" style="fill: rgb(224, 224, 224); transform-origin: 197.115px 403.455px;" id="el6oq8ygwa1m4" class="animable"></rect><rect x="68.73" y="415.33" width="36.25" height=".25" style="fill: rgb(224, 224, 224); transform-origin: 86.855px 415.455px;" id="elapxj2wc8fa" class="animable"></rect><rect x="378.35" y="403.2" width="43.19" height=".25" style="fill: rgb(224, 224, 224); transform-origin: 399.945px 403.325px;" id="el7ypdr7vrug" class="animable"></rect><rect x="430.45" y="403.2" width="6.33" height=".25" style="fill: rgb(224, 224, 224); transform-origin: 433.615px 403.325px;" id="el32ril094btf" class="animable"></rect><rect x="316.21" y="409.43" width="53.89" height=".25" style="fill: rgb(224, 224, 224); transform-origin: 343.155px 409.555px;" id="elezixp2rsgsi" class="animable"></rect></g><g id="ell8lclx99u5" class="animable" style="transform-origin: 369.935px 196.925px;"><rect x="278.8" y="75.6" width="182.27" height="242.65" style="fill: rgb(224, 224, 224); transform-origin: 369.935px 196.925px;" id="els6lqbf0ac3" class="animable"></rect><rect x="286.82" y="85.21" width="166.71" height="223.93" style="fill: rgb(245, 245, 245); transform-origin: 370.175px 197.175px;" id="elap9tdngflal" class="animable"></rect><polygon points="333.94 85.21 286.82 297.5 286.82 182.57 308.38 85.21 333.94 85.21" style="fill: rgb(255, 255, 255); transform-origin: 310.38px 191.355px;" id="elg2xcfb547yt" class="animable"></polygon><polygon points="354.99 85.21 305.3 309.14 295.93 309.14 345.62 85.21 354.99 85.21" style="fill: rgb(255, 255, 255); transform-origin: 325.46px 197.175px;" id="el098dcf98e495" class="animable"></polygon><polygon points="453.53 146.28 453.53 261.22 442.98 309.14 417.42 309.14 453.53 146.28" style="fill: rgb(255, 255, 255); transform-origin: 435.475px 227.71px;" id="elr9ht0n8kiv" class="animable"></polygon><rect x="366.7" y="75.6" width="6.47" height="242.65" style="fill: rgb(224, 224, 224); transform-origin: 369.935px 196.925px;" id="el5vxqrzqgk2k" class="animable"></rect><rect x="281.96" y="116.53" width="175.61" height="6.47" style="fill: rgb(224, 224, 224); transform-origin: 369.765px 119.765px;" id="elptmhbztxvy" class="animable"></rect></g><g id="elow04r0fhmah" class="animable" style="transform-origin: 136.175px 117.71px;"><rect x="108.1" y="71.31" width="72.33" height="92.8" style="fill: rgb(230, 230, 230); transform-origin: 144.265px 117.71px;" id="elt6xkxo1etrd" class="animable"></rect><rect x="91.92" y="71.31" width="84.96" height="92.8" style="fill: rgb(240, 240, 240); transform-origin: 134.4px 117.71px;" id="el01o451thf8ze" class="animable"></rect><rect x="99.75" y="79.56" width="68.93" height="76.32" style="fill: rgb(255, 255, 255); transform-origin: 134.215px 117.72px;" id="elf7ip93nowr" class="animable"></rect><rect x="122.39" y="103.94" width="24.88" height="27.55" style="fill: rgb(240, 240, 240); transform-origin: 134.83px 117.715px;" id="elylnx56dgofi" class="animable"></rect></g><g id="elvnh7ax8d0w" class="animable" style="transform-origin: 138.13px 229.18px;"><rect x="110.06" y="182.78" width="72.33" height="92.8" style="fill: rgb(230, 230, 230); transform-origin: 146.225px 229.18px;" id="el92ao0w9p6wr" class="animable"></rect><rect x="93.87" y="182.78" width="84.96" height="92.8" style="fill: rgb(240, 240, 240); transform-origin: 136.35px 229.18px;" id="elk3cr6nb8dt7" class="animable"></rect><rect x="101.71" y="191.02" width="68.93" height="76.32" style="fill: rgb(255, 255, 255); transform-origin: 136.175px 229.18px;" id="el8bnsexddsgc" class="animable"></rect><rect x="124.35" y="215.41" width="24.88" height="27.55" style="fill: rgb(240, 240, 240); transform-origin: 136.79px 229.185px;" id="elecikdd21pcu" class="animable"></rect></g></g><g id="freepik--Shadow--inject-224" class="animable animator-hidden" style="transform-origin: 247.34px 452.03px;"><path d="M476.55,452.03c0,3.09-102.62,5.6-229.21,5.6s-229.21-2.51-229.21-5.6,102.62-5.6,229.21-5.6,229.21,2.51,229.21,5.6Z" style="fill: rgb(245, 245, 245); transform-origin: 247.34px 452.03px;" id="elfoi8lf46cwq" class="animable"></path></g><g id="freepik--Speech_Bubble--inject-224" class="animable" style="transform-origin: 227.4px 189.119px;"><g id="el9z2zqsam95" class="animable" style="transform-origin: 227.4px 189.119px;"><path d="M261.06,173.6c-8.57-17.14-29.42-24.09-46.56-15.52-16.44,8.22-23.49,27.73-16.48,44.43l-4.75,9.87,10.69-.34c10.16,11.56,27.18,15.32,41.59,8.12,17.14-8.57,24.09-29.42,15.52-46.56Z" style="fill: rgb(114, 15, 173); transform-origin: 229.005px 189.119px;" id="elekwuc9lhi29" class="animable"></path><g id="elze5qn9bs6kd"><path d="M261.06,173.6c-8.57-17.14-29.42-24.09-46.56-15.52-16.44,8.22-23.49,27.73-16.48,44.43l-4.75,9.87,10.69-.34c10.16,11.56,27.18,15.32,41.59,8.12,17.14-8.57,24.09-29.42,15.52-46.56Z" style="fill: rgb(255, 255, 255); opacity: 0.6; transform-origin: 229.005px 189.119px;" class="animable"></path></g><path d="M190.44,184.67h0c-.21,0-.37-.18-.37-.38,.27-11.36,6.73-22.51,16.45-28.39,.18-.11,.41-.05,.52,.13,.11,.18,.05,.41-.13,.52-9.51,5.76-15.82,16.66-16.08,27.77,0,.2-.17,.37-.38,.37Zm.73,10.26c.2-.06,.3-.28,.24-.47-.51-1.58-.7-3.29-.54-4.94,.02-.21-.13-.39-.34-.41-.2-.02-.39,.13-.41,.34-.17,1.76,.02,3.57,.57,5.25,.05,.16,.2,.26,.36,.26,.04,0,.08,0,.12-.02Z" style="fill: rgb(114, 15, 173); transform-origin: 198.578px 175.402px;" id="el8deqb4sti6j" class="animable"></path><g id="elxbqdinrivfo"><path d="M190.44,184.67h0c-.21,0-.37-.18-.37-.38,.27-11.36,6.73-22.51,16.45-28.39,.18-.11,.41-.05,.52,.13,.11,.18,.05,.41-.13,.52-9.51,5.76-15.82,16.66-16.08,27.77,0,.2-.17,.37-.38,.37Zm.73,10.26c.2-.06,.3-.28,.24-.47-.51-1.58-.7-3.29-.54-4.94,.02-.21-.13-.39-.34-.41-.2-.02-.39,.13-.41,.34-.17,1.76,.02,3.57,.57,5.25,.05,.16,.2,.26,.36,.26,.04,0,.08,0,.12-.02Z" style="fill: rgb(255, 255, 255); opacity: 0.6; transform-origin: 198.578px 175.402px;" class="animable"></path></g><path d="M216.67,186.08c.19-1.74,1.03-3.37,2.19-4.68,1.14-1.28,2.62-2.29,4.3-2.66,1.78-.39,3.71-.02,5.21,1,.89,.61,1.63,1.45,2.14,2.4,.49-.85,1.17-1.6,1.98-2.15,1.5-1.04,3.43-1.42,5.21-1.04,1.68,.36,3.17,1.36,4.31,2.63,1.17,1.3,2.02,2.92,2.22,4.66,.26,2.18-.16,4.56-1.28,6.44-1.19,1.99-3.11,3.59-5.08,4.79-3.32,2.02-7.7,4.55-7.7,4.55,0,0-3.72-2.76-7.06-4.76-1.99-1.19-3.92-2.78-5.12-4.76-1.14-1.87-1.56-4.25-1.32-6.43Z" style="fill: rgb(114, 15, 173); transform-origin: 230.455px 190.304px;" id="el3oq1d60fzb9" class="animable"></path></g></g><g id="freepik--Character_2--inject-224" class="animable" style="transform-origin: 348.958px 299.196px;"><g id="elkeiny45psei" class="animable" style="transform-origin: 348.958px 299.196px;"><path d="M291.95,356.03l-5.63,12.35-34.02-34.35-15.37,11.82s32.93,61.04,55.53,61.63c18.62,.49,28.31-23.78,30.92-36.14l-31.44-15.31Z" style="fill: rgb(185, 121, 100); transform-origin: 280.155px 370.759px;" id="elirfvq0kr46" class="animable"></path><g id="elzqowdkbo71q" class="animable" style="transform-origin: 384.33px 299.196px;"><g id="elrl4lmrxo3t" class="animable" style="transform-origin: 366.06px 359.622px;"><path d="M346.96,272.17c14.28,10.42,19.91,42.74-24.22,105.76l-41.74-21.69c6.56-15.79,18.21-41.95,29.93-63.5,13.46-27.63,36.03-20.57,36.03-20.57Z" style="fill: rgb(114, 15, 173); transform-origin: 319.166px 324.646px;" id="elwawu1b41jkg" class="animable"></path><g id="elcpp8j4q0ze7"><path d="M346.96,272.17c14.28,10.42,19.91,42.74-24.22,105.76l-41.74-21.69c6.56-15.79,18.21-41.95,29.93-63.5,13.46-27.63,36.03-20.57,36.03-20.57Z" style="fill: rgb(255, 255, 255); opacity: 0.4; transform-origin: 319.166px 324.646px;" class="animable"></path></g><path d="M444.6,275.33c-46.31-9.29-90.54-4.98-101.88-4.27-3.26,0-9.18,3.56-10.08,4.55-8.26,45.01-13.35,124.14-18.66,174.19h137.14l-6.51-174.47Z" style="fill: rgb(114, 15, 173); transform-origin: 382.55px 359.622px;" id="el2q5jeqds7lp" class="animable"></path><g id="elawssyy1en0u"><path d="M444.6,275.33c-46.31-9.29-90.54-4.98-101.88-4.27-3.26,0-9.18,3.56-10.08,4.55-8.26,45.01-13.35,124.14-18.66,174.19h137.14l-6.51-174.47Z" style="fill: rgb(255, 255, 255); opacity: 0.4; transform-origin: 382.55px 359.622px;" class="animable"></path></g></g><g id="elkah87zach3" class="animable" style="transform-origin: 394.45px 217.326px;"><g id="elf3dybqgodz" class="animable" style="transform-origin: 394.45px 217.326px;"><g id="elj0n9v40kmo9" class="animable" style="transform-origin: 394.45px 217.326px;"><g id="el5mzua04vapl" class="animable" style="transform-origin: 393.944px 254.405px;"><path d="M406.01,272.67s-2.02-14.47,6.45-39.55c0-.03-1.31-.68-1.31-.71,1.17-3.51,2.39-6.74,3.54-9.55,.03-.08,.03-.11,.03-.11l-35.68,19.96c.46,8.16-3.14,23.73-5.16,30.28,0,0-4.91,11.81,11.04,13.03,11.65,.89,21.1-13.37,21.1-13.37Z" style="fill: rgb(185, 121, 100); transform-origin: 393.944px 254.405px;" id="elh1bkocy928c" class="animable"></path><g id="ellz4qdoaoap"><path d="M377.94,254.11l20.19-3.64c-2.09,6.14-7.91,13.27-21.85,13.27,0,0,1.69-6.9,1.66-9.63Z" style="opacity: 0.2; transform-origin: 387.205px 257.105px;" class="animable"></path></g></g><g id="el711k1odjsko" class="animable" style="transform-origin: 394.45px 202.969px;"><path d="M415.72,205.89c-3.3,21.93-4.72,34.36-16.87,44.59-18.27,15.38-44.02,3.18-47.35-19.35-2.99-20.29,2.91-52.73,25.29-59.39,22.05-6.56,42.23,12.23,38.92,34.16Z" style="fill: rgb(185, 121, 100); transform-origin: 383.423px 213.88px;" id="el213b62g1bzp" class="animable"></path><path d="M422.55,219.77c7.16-6.39,6.57-12.15,6.57-12.15,4.03,.38,7.93-1.61,9.67-4.94,3.73-5.93-3.04-12.85-3.04-12.85,4.22-2.28,6.18-6.84,4.72-10.99-2.14-7.91-11.73-9.63-11.73-9.63,1.78-3.93,.34-8.38-3.49-10.75-6.63-4.74-17.24-.95-17.24-.95,0,0,.78-9.23-9.02-8.91-5.74,.19-10.97,3.2-13.59,7.83,0,0-5.48-9.24-15.21-6.57-9.72,2.67-8.32,14.03-8.32,14.03,0,0-15.15-3.63-13.84,11.24,1.3,14.87,19.3,11.11,19.3,11.11,5.95,6.35,14.21,.37,14.21,.37,5.68,5.84,15.57,2.12,15.57,2.12-3.44,3.8-3.19,9.26,.59,12.64-3.29,12.03,8.07,12.88,8.07,12.88,1.16,11.39,9.6,11.91,16.76,5.52Z" style="fill: rgb(38, 50, 56); transform-origin: 394.45px 186.232px;" id="elbo9teqi8a9k" class="animable"></path><path d="M422.8,225.03c-2.26,5.52-6.87,9.45-11.44,11.24-6.87,2.69-8.69-4.72-7.45-11.61,1.11-6.2,3.61-13.66,10.83-13.4,7.11,.26,10.65,7.46,8.06,13.77Z" style="fill: rgb(185, 121, 100); transform-origin: 413.597px 224.044px;" id="el1qjch51xnuxj" class="animable"></path><path d="M384.11,211.52c-.2,2.26-1.56,3.97-3.03,3.82-1.48-.14-2.51-2.09-2.31-4.35,.2-2.26,1.56-3.97,3.03-3.82,1.48,.14,2.51,2.09,2.31,4.35Z" style="fill: rgb(38, 50, 56); transform-origin: 381.44px 211.255px;" id="el9spuecvfvwn" class="animable"></path><path d="M362.24,210.04c-.2,2.26-1.56,3.97-3.03,3.82-1.48-.15-2.51-2.09-2.31-4.35,.2-2.26,1.56-3.97,3.03-3.82,1.48,.15,2.51,2.09,2.31,4.35Z" style="fill: rgb(38, 50, 56); transform-origin: 359.57px 209.775px;" id="eloxtsz3e2gh" class="animable"></path><path d="M368.75,207.34s-8.13,10.58-10.82,14.94c2.89,3.11,8.41,2.28,8.41,2.28l2.41-17.23Z" style="fill: rgb(162, 78, 63); transform-origin: 363.34px 215.995px;" id="el3i11sz2nqyv" class="animable"></path><path d="M390.06,199.32c-.35,.11-.75,.03-1.05-.24-3.47-3.24-7.28-2.37-7.32-2.36-.57,.14-1.15-.21-1.29-.78-.14-.57,.21-1.14,.77-1.28,.2-.05,4.97-1.14,9.28,2.88,.43,.4,.45,1.07,.06,1.49-.13,.14-.29,.23-.46,.28Z" style="fill: rgb(38, 50, 56); transform-origin: 385.579px 196.928px;" id="eleeknryf6ue9" class="animable"></path></g><g id="el3vj3fn4lulh"><path d="M407.66,224.71s-.07,0-.1-.01c-.27-.05-.45-.32-.39-.59,.4-1.97,1.31-3.8,2.64-5.31,.9-1.02,2.37-2.29,4.31-2.59,1.9-.29,3.8,.55,4.63,2.05,.13,.24,.05,.55-.2,.68-.24,.13-.54,.05-.68-.2-.62-1.12-2.13-1.77-3.6-1.54-1.64,.25-2.92,1.37-3.71,2.27-1.21,1.38-2.05,3.05-2.41,4.85-.05,.24-.26,.4-.49,.4Z" style="opacity: 0.2; transform-origin: 412.985px 220.437px;" class="animable"></path></g></g><path d="M352.51,197.57c-.19-.06-.37-.18-.51-.34-.37-.46-.31-1.13,.14-1.5,4.51-3.72,9.16-2.25,9.37-2.21,.56,.18,.87,.78,.69,1.34-.17,.56-.76,.86-1.31,.69-.19-.07-3.78-1.16-7.4,1.83-.28,.23-.65,.29-.98,.19Z" style="fill: rgb(38, 50, 56); transform-origin: 357.005px 195.409px;" id="elq6pyyilh5d" class="animable"></path></g><path d="M376.04,234.53c-.69,0-1.39-.09-2.06-.27-.27-.07-.42-.35-.35-.61,.07-.27,.35-.42,.61-.35,1.64,.45,3.45,.26,4.97-.53,1.51-.78,2.71-2.15,3.3-3.75,.09-.26,.38-.39,.64-.3,.26,.09,.39,.38,.3,.64-.67,1.83-2.04,3.4-3.78,4.3-1.12,.58-2.38,.88-3.63,.88Z" style="fill: rgb(38, 50, 56); transform-origin: 378.546px 231.616px;" id="elgrkxftpk8af" class="animable"></path></g><g id="elxv8ynq99fpq" class="animable" style="transform-origin: 372.929px 293.725px;"><path d="M386.8,289.83c-2.51-1.59-5.56-2.04-8.5-2.46,3.38-2.56,4.98-7.25,3.86-11.34-3.18,3.19-7.37,5.37-11.82,6.12-1.9,.32-3.87,.41-5.63,1.19-1.76,.78-3.28,2.54-3.04,4.44,.25,1.93,2.18,3.22,4.07,3.68,1.89,.46,3.89,.35,5.77,.84,1.63,.43,3.33,1.64,3.28,3.32-.04,1.56-1.57,2.66-3.03,3.22-2.57,.98-5.37,1.12-8.08,1.61-2.71,.5-5.51,1.48-7.19,3.66s-1.65,5.82,.66,7.31l30.02-.92c-1.84-.07-3.01-2.23-2.71-4.04,.29-1.81,1.57-3.29,2.83-4.62,1.26-1.33,2.61-2.72,3.08-4.49,.77-2.87-1.08-5.93-3.59-7.52Z" style="fill: rgb(114, 15, 173); transform-origin: 372.929px 293.725px;" id="elivvy7myenmb" class="animable"></path><g id="elu9w21t5pijp"><g style="opacity: 0.8; transform-origin: 372.929px 293.725px;" class="animable"><path d="M386.8,289.83c-2.51-1.59-5.56-2.04-8.5-2.46,3.38-2.56,4.98-7.25,3.86-11.34-3.18,3.19-7.37,5.37-11.82,6.12-1.9,.32-3.87,.41-5.63,1.19-1.76,.78-3.28,2.54-3.04,4.44,.25,1.93,2.18,3.22,4.07,3.68,1.89,.46,3.89,.35,5.77,.84,1.63,.43,3.33,1.64,3.28,3.32-.04,1.56-1.57,2.66-3.03,3.22-2.57,.98-5.37,1.12-8.08,1.61-2.71,.5-5.51,1.48-7.19,3.66s-1.65,5.82,.66,7.31l30.02-.92c-1.84-.07-3.01-2.23-2.71-4.04,.29-1.81,1.57-3.29,2.83-4.62,1.26-1.33,2.61-2.72,3.08-4.49,.77-2.87-1.08-5.93-3.59-7.52Z" style="fill: rgb(255, 255, 255); transform-origin: 372.929px 293.725px;" id="elxkjobeas8w" class="animable"></path></g></g></g><g id="eld2s9u7q2hfs" class="animable" style="transform-origin: 418.68px 353.378px;"><g id="elmbfbmi8t2j" class="animable" style="transform-origin: 446.735px 353.378px;"><path d="M443.59,359.53l5.74,23.01-22.79-21.4-20.73,11.61s38.36,54.12,53.5,58.62c5.72,1.7,26.48-3.81,26.48-19.26,0-28.94-6.36-49.53-10.85-74.55l-31.34,21.97Z" style="fill: rgb(185, 121, 100); transform-origin: 445.8px 384.613px;" id="elwlic6iz6ak" class="animable"></path><path d="M443.14,275.09s21.77,1.93,29.06,30.31c5.33,20.75,15.46,63.71,15.46,63.71l-45.64,5.91-9.19-54.71,10.32-45.22Z" style="fill: rgb(114, 15, 173); transform-origin: 460.245px 325.055px;" id="elp0h60c3loh9" class="animable"></path></g><path d="M393.43,315.71c-.57,0-1.11,.1-1.66,.17v-8.5h-42.07v49.33c0,3.2,2.6,5.8,5.8,5.8h30.47c3.2,0,5.8-2.6,5.8-5.8v-2.69c.55,.07,1.09,.17,1.66,.17,7.7,0,13.96-6.26,13.96-13.96v-10.55c0-7.7-6.26-13.96-13.96-13.96Zm7.98,25.49c0,1.42-.5,2.81-1.49,3.83-2.98,3.05-5.74,3.5-8.15,2.99v-26.15c2.41-.51,5.17-.05,8.15,2.97,.99,1.01,1.49,2.41,1.49,3.82v12.53Z" style="fill: rgb(38, 50, 56); transform-origin: 378.545px 334.945px;" id="el7u92uot9prj" class="animable"></path><path d="M407.36,331.74s-3.05-2.97-8.02-6.14c-4.81-3.07-8.72,6.69-7.93,11.04,0,0-4.43,4.06-1.97,9l1.97,2.9s-6.32,.62-3.27,8.51c3.05,7.89,11.49,13.96,17.76,17.06,6.27,3.1,20.61-11.75,20.64-12.96l-5.36-6.25c-.26-11.95-13.11-28.21-13.83-28.38l.02,5.23Z" style="fill: rgb(185, 121, 100); transform-origin: 406.924px 349.774px;" id="el9sc3z0uhyed" class="animable"></path><g id="el3lt310lt24"><path d="M449.42,382.65s12.02,3.3,15.91,16.19c0,0,1.4-5.32-3.1-12.27-4.5-6.96-14.19-9.49-14.19-9.49l1.39,5.57Z" style="isolation: isolate; opacity: 0.2; transform-origin: 456.788px 387.96px;" class="animable"></path></g></g></g><path d="M265.04,340.65l-26.19-3.57c-.89-.12-1.66-.63-2.08-1.39l-26.17-47.28c-1.08-1.95,.52-4.44,2.86-4.44l24.08-.05c1.06,0,2.01,.54,2.5,1.42l28.29,50.9c1.17,2.11-.79,4.76-3.28,4.42Z" style="fill: rgb(38, 50, 56); transform-origin: 239.467px 312.305px;" id="ellb2ht0qsxzc" class="animable"></path><g id="elfaw110seimi"><path d="M236.69,346.64s.78,2.25,7.8,1.46c7.02-.8,13.49-7.7,13.49-7.7l-4.09-3.43-17.21,9.67Z" style="opacity: 0.2; transform-origin: 247.33px 342.619px;" class="animable"></path></g><g id="ell41c1x2f3lk" class="animable" style="transform-origin: 239.33px 327.966px;"><path d="M227.66,319.36s19.35-4.4,22.82-1.62c3.48,2.78-2.35,5.32-2.35,5.32,0,0,6.58-2.4,7.98,.26,1.68,3.19-4.44,5.82-4.44,5.82,0,0,5.46-1.74,6.54,.71,1.12,2.54-5.57,6-5.57,6,0,0,4.07-.5,3.86,1.63-.21,2.13-14.27,9.75-19.82,9.16-5.55-.59-16.43-18.14-15.84-23.42,.51-4.55-2.19-10.38,1.31-13.96l5.94,10.1h-.43Z" style="fill: rgb(185, 121, 100); transform-origin: 239.33px 327.966px;" id="elelhng3944pl" class="animable"></path><g id="elpnfkgognfr8"><path d="M248.26,323.37s-.02,0-.03,.01l-11.68,3.64c-.16,.05-.33-.06-.39-.23-.06-.18,.02-.36,.18-.41l11.68-3.64c.16-.05,.33,.06,.39,.23,.06,.17-.01,.34-.15,.4Z" style="opacity: 0.2; transform-origin: 242.286px 324.88px;" class="animable"></path></g><g id="elybdvml82cmq"><path d="M251.48,329.59h0l-10.94,4.39c-.15,.06-.33-.03-.4-.2-.07-.17-.01-.32,.15-.42l10.94-4.38c.15-.06,.33,.03,.4,.2,.07,.17,0,.36-.14,.42Z" style="opacity: 0.2; transform-origin: 245.884px 331.48px;" class="animable"></path></g><g id="elj35pe64jer"><path d="M252.4,336.32l-8.03,3.49c-.15,.07-.33-.02-.41-.19-.07-.17-.01-.36,.14-.43l8.03-3.49c.15-.07,.33,.02,.41,.19s.01,.36-.14,.43Z" style="opacity: 0.2; transform-origin: 248.252px 337.755px;" class="animable"></path></g></g><g id="elupp4d1vj6z"><path d="M290.92,381.86s1.46-7.35-4.6-13.48l2.38-4.56s8.83,8.69,2.23,18.03Z" style="isolation: isolate; opacity: 0.2; transform-origin: 289.85px 372.84px;" class="animable"></path></g><path d="M233.32,299.98c1.03,1.33,1.1,2.99,.18,3.7-.93,.72-2.51,.22-3.54-1.11-1.03-1.33-1.1-2.99-.18-3.7,.93-.72,2.51-.22,3.54,1.11Z" style="fill: rgb(255, 255, 255); transform-origin: 231.64px 301.275px;" id="el98iio1pyylw" class="animable"></path></g><g id="ellxlxztengii"><path d="M443.14,275.09s21.77,1.93,29.06,30.31c5.33,20.75,15.46,63.71,15.46,63.71l-45.64,5.91-9.19-54.71,10.32-45.22Z" style="fill: rgb(255, 255, 255); opacity: 0.4; transform-origin: 460.245px 325.055px;" class="animable"></path></g></g><g id="freepik--Character_1--inject-224" class="animable" style="transform-origin: 149.366px 313.074px;"><g id="eluzzyhpmlqe" class="animable" style="transform-origin: 149.366px 313.074px;"><g id="el3ovp3wh0um5" class="animable" style="transform-origin: 106.306px 243.618px;"><path d="M47.05,271.76c-2.26-21.08,13.1-15.9,11.09-42.85-2.21-29.68,26-37.11,26-37.11,0,0,9.75-13.04,23.28-16.69,17.33-4.68,61.59,6.74,51.43,44.25-6.06,22.36-2.35,21.45,1.01,30.8,4.75,13.23-6.68,31.39,5.93,39.42,0,0-48.42-.99-100.2,2,0,0-17.17-6.95-18.55-19.82Z" style="fill: rgb(38, 50, 56); transform-origin: 106.306px 232.849px;" id="el5k5bxsd49wp" class="animable"></path><g id="el8c66dhq8zcu" class="animable" style="transform-origin: 117.472px 248.855px;"><g id="elr1cabzfm4" class="animable" style="transform-origin: 117.472px 248.855px;"><g id="el16fvml80xa" class="animable" style="transform-origin: 118.819px 251.117px;"><path d="M85.75,290.6s8.64,4.25,19.29,13.43c2.22,1.91,4.66,3.57,7.25,4.94,6.98,3.71,13.34,5.83,15.06,2.46,.38-.74,.68-1.54,.9-2.38,1.46-5.63,.86-13.56-3.69-17.18-5.14-4.09-7.61-7.58-6.69-13.12,.49-3.14,1.62-6.37,2.95-9.52l-5.93-3.56-21.13-21.33c2.42,13.08,3.13,38.53-8,46.26Z" style="fill: rgb(235, 179, 115); transform-origin: 107.354px 278.729px;" id="elt61xhykjy3m" class="animable"></path><g id="elzoiu9q2ulj"><path d="M117.7,279.96c-5.81-3.45-12.19-9.44-11.43-16.27,.34-2.88,.96-5.61,1.65-7.36l11.81,15.63c-.97,2.52-1.32,4.19-2.03,8Z" style="opacity: 0.2; transform-origin: 112.969px 268.145px;" class="animable"></path></g><path d="M89.66,220.29c1.99,21.72,2.37,30.92,13.58,42.31,16.86,17.13,42.79,11.37,47.25-10.16,4.02-19.37,.09-51.63-21.23-60.76-21-8.99-41.59,6.89-39.6,28.6Z" style="fill: rgb(235, 179, 115); transform-origin: 120.708px 230.871px;" id="elfmavltr6h7a" class="animable"></path><path d="M117.78,227.36c.11,2.3,1.35,4.18,2.78,4.21,1.43,.03,2.5-1.81,2.39-4.11-.11-2.3-1.35-4.18-2.78-4.21-1.43-.03-2.5,1.81-2.39,4.11Z" style="fill: rgb(38, 50, 56); transform-origin: 120.365px 227.41px;" id="elq5s9v6kz78d" class="animable"></path><path d="M139.2,227.29c.11,2.23,1.35,4.06,2.77,4.09,1.42,.03,2.49-1.75,2.38-3.98-.11-2.23-1.35-4.06-2.77-4.08-1.42-.03-2.49,1.75-2.38,3.98Z" style="fill: rgb(38, 50, 56); transform-origin: 141.775px 227.35px;" id="el8ycmkm3x8zd" class="animable"></path><path d="M113.25,219.36c.28,.03,.56-.05,.77-.25,3.35-3.1,7.11-2.01,7.16-2,.56,.16,1.12-.15,1.25-.72,.13-.57-.23-1.17-.79-1.34-.2-.06-4.92-1.43-9.08,2.42-.41,.38-.42,1.06-.02,1.52,.2,.22,.45,.34,.71,.37Z" style="fill: rgb(38, 50, 56); transform-origin: 117.351px 217.066px;" id="elnfzbwd2y5v" class="animable"></path><path d="M146.4,216.4c.22-.07,.4-.24,.5-.47,.2-.49-.04-1.12-.54-1.39-4.96-2.79-8.64-.67-8.8-.58-.44,.26-.54,.88-.23,1.38,.31,.5,.91,.7,1.34,.44,.14-.09,3.02-1.68,6.97,.54,.26,.14,.53,.17,.76,.09Z" style="fill: rgb(38, 50, 56); transform-origin: 142.06px 214.779px;" id="elbqn8ju53rn6" class="animable"></path><path d="M133.37,226.23s3.4,8.13,7.23,13.2c.67,.89,.26,2.18-.79,2.56-2.68,.99-5.82,.09-5.82,.09l-.62-15.85Z" style="fill: rgb(228, 135, 62); transform-origin: 137.148px 234.342px;" id="eldzjz6f2hnpe" class="animable"></path></g><path d="M119.36,223.35l4.98-1.18s-2.73,3.72-4.98,1.18Z" style="fill: rgb(38, 50, 56); transform-origin: 121.85px 223.204px;" id="eltz5fek0u1hq" class="animable"></path><path d="M141.07,223.37l4.98-1.18s-2.73,3.72-4.98,1.18Z" style="fill: rgb(38, 50, 56); transform-origin: 143.56px 223.224px;" id="elbkke32d8qh4" class="animable"></path><path d="M97.19,227.79s11.2-16.86,10.62-30.52c0,0,21.44-5.59,38.54,17.25,2.72,3.64,4.35,9.71,6.79,14.94,0,0,4.09-41.32-32.57-44.71-36.61-3.38-43.8,48.08-25.94,65.4,0,0-4.38-11.82,2.56-22.37Z" style="fill: rgb(38, 50, 56); transform-origin: 119.273px 217.371px;" id="el7msu80zcr7y" class="animable"></path><path d="M83.09,237.99c2.57,4.45,6.73,7.25,10.55,8.21,5.75,1.44,8.72-7.8,6.75-13.56-1.77-5.18-7.41-8.62-13.01-7.49-5.51,1.11-7.23,7.74-4.3,12.84Z" style="fill: rgb(235, 179, 115); transform-origin: 91.3324px 235.643px;" id="elenezcjwymdq" class="animable"></path></g><g id="elfe21pxvz9ns"><path d="M95.23,237.33c-.26,0-.48-.2-.5-.47-.13-1.94-1.04-3.78-2.5-5.06-1.46-1.28-3.42-1.95-5.34-1.82-.28,0-.51-.19-.53-.47s.19-.51,.47-.53c2.19-.14,4.41,.61,6.07,2.07,1.66,1.45,2.69,3.55,2.84,5.75,.02,.28-.19,.51-.47,.53h-.03Z" style="opacity: 0.2; transform-origin: 91.05px 233.147px;" class="animable"></path></g></g><g id="elkv7mkx7ojej" class="animable" style="transform-origin: 125.987px 248.83px;"><path d="M134.08,248.18c-1.76,2.72-3.89,7.98-3.89,7.98-.51-.11-1.02-.21-1.53-.34-6.9-1.62-9.57-4.64-10.43-7.51-.47-1.57-.38-3.11-.14-4.32,.26-1.41,.76-2.36,.76-2.36,3.15,3.04,9.47,5.04,12.88,5.97,1.43,.4,2.34,.59,2.34,.59Z" style="fill: rgb(38, 50, 56); transform-origin: 125.987px 248.895px;" id="elqcfcld8qutj" class="animable"></path><path d="M132.58,247.63l-1.28,2.46c-6.88-1.63-11.5-3.69-13.16-6.28,.27-1.49,.81-2.49,.81-2.49,3.33,3.22,10.02,5.34,13.63,6.32Z" style="fill: rgb(255, 255, 255); transform-origin: 125.36px 245.705px;" id="elrm3vp6k16l" class="animable"></path><path d="M129.33,256.33c-7.3-1.71-10.13-4.92-11.04-7.95,2.47,.68,5.36,1.77,7.73,3.51,1.82,1.32,2.78,2.92,3.31,4.45Z" style="fill: rgb(220, 87, 83); transform-origin: 123.81px 252.36px;" id="elk2hm2l77tq8" class="animable"></path></g></g><g id="eltvlx66y5eg" class="animable" style="transform-origin: 149.366px 367.829px;"><g id="eltdrm9y2v3ws" class="animable" style="transform-origin: 189.391px 364.022px;"><g id="elkq2823kfs3s" class="animable" style="transform-origin: 241.059px 414.36px;"><path d="M219.84,404.48s4.12-5.79,9.93-6.7c5.81-.91,10.2-3.18,14.56-3.55,4.36-.38,.24,3.86-2.41,5.67-2.65,1.81-5.63,3.88-3.95,5.66,1.68,1.77,21.79,7.79,23.84,10.51,2.05,2.72-1.51,2.76-1.51,2.76,0,0,4.84,1.59,4.74,3.69-.03,.54-.97,1.76-3.3,1.38-5.22-.86-16.09-3.22-16.09-3.22,.63,.12,13.83,4,15.74,4.83,2.49,1.1,3.1,2.88,2.42,4.3-.97,2.02-17.51-2.22-18.33-1.91,0,0,9.6,2.12,10.41,4.9,.81,2.78-5.31,1.77-10.54-.14-4.79-1.75-14.65-3.94-19.35-6.19-5.79-2.78-9.05-5.95-8.92-11.96,.13-6.02,2.77-10.02,2.77-10.02Z" style="fill: rgb(235, 179, 115); transform-origin: 241.059px 414.36px;" id="elwssxxnx1y1a" class="animable"></path><g id="elrpss0bkyr69"><path d="M259.71,417.62s-.05,0-.07-.01c-3.88-1.17-7.88-2.18-11.87-3-.14-.03-.22-.16-.19-.29,.03-.14,.16-.22,.3-.2,4,.82,8.01,1.83,11.91,3.01,.13,.04,.21,.18,.17,.31-.03,.11-.13,.18-.24,.18Z" style="opacity: 0.3; transform-origin: 253.772px 415.868px;" class="animable"></path></g><g id="elq8kh7y74gyd"><path d="M241.71,426.32s-.09-.01-.13-.04c-.12-.07-.15-.23-.08-.34,2.76-4.42,4.2-9.72,4.05-14.93,0-.14,.1-.25,.24-.26,.13-.01,.25,.1,.26,.24,.15,5.31-1.32,10.71-4.13,15.21-.05,.08-.13,.12-.21,.12Z" style="opacity: 0.3; transform-origin: 243.762px 418.535px;" class="animable"></path></g><g id="el28mtcos0815"><path d="M227.4,411.59c-.81,0-1.61-.1-2.39-.3-.13-.04-.21-.17-.18-.31,.03-.13,.17-.21,.3-.18,2.01,.52,4.25,.32,6.13-.56,1.89-.88,3.48-2.46,4.37-4.35,.06-.13,.21-.18,.33-.12,.12,.06,.18,.21,.12,.33-.94,1.99-2.62,3.66-4.61,4.59-1.26,.59-2.68,.89-4.08,.89Z" style="opacity: 0.3; transform-origin: 230.464px 408.667px;" class="animable"></path></g></g><path d="M160.9,322.59c0,1.37,3.86,50.56,3.86,50.56,2.74,5.13,59.92,28.78,59.92,28.78l-6.78,16.58s-67.03-13.52-77.85-21.39c-9.23-6.71-8.46-18.49-8.46-34.57s-5.61-38.55-5.61-38.55l34.91-1.41Z" style="fill: rgb(235, 179, 115); transform-origin: 175.33px 370.55px;" id="elz21ptwbwmw" class="animable"></path><path d="M135.39,293.53c26.57,4.55,30.22,43.88,30.22,43.88l4.04,31.24,15.07,11-14.09,30.1s-30.52-10.48-43.75-18.31c-13.23-7.83-13.14-68.82-13.14-68.82l21.65-29.09Z" style="fill: rgb(114, 15, 173); transform-origin: 149.23px 351.64px;" id="elxxgp1yjz3cs" class="animable"></path></g><g id="el9n3x8lmi52s" class="animable" style="transform-origin: 96.4159px 367.829px;"><g id="elnk11eh8ell"><path d="M142.08,398.81c-.5,.22,7.58,3.12,7.58,3.12,.14,.08,5.84-17.18,5.98-17.09,6.4-28.92,2.07-51.97,2.07-51.97-4.85,10.09-14.4,57.49-15.63,65.94Z" style="opacity: 0.2; transform-origin: 150.6px 367.4px;" class="animable"></path></g><path d="M148,444.97c2.46-5.21-8.32-26.87-7.29-41.82,6.99-26.07,17.18-55.74,17-70.28-.19-15.6-7.17-34.99-22.31-39.34-4.22-1.21-8.62-2.42-12.89-3.41-12.86-3.06-25-4.32-39.8-5.72-3.79-.38-7.52-.62-11.04-.75-13.18-.54-25.4,9.15-23.6,22.55,.4,3.01,3.08,7.42,3.43,10.27,1.56,12.3,2.71,23.12,3.52,32.6,.43,5.29,.78,10.15,1.02,14.66,.08,1.42,.16,2.85,.21,4.19,.4,8.6,.44,15.76,.21,21.81,0,.92-.05,1.83-.13,2.75,0,.04,0,.08,0,.12-.99,11.16-7.3,21.89-12.05,28.72-3.38,4.87-5.69,10.41-6.76,16.24-.01,.08-.03,.15-.04,.23l110.51,7.19Z" style="fill: rgb(114, 15, 173); transform-origin: 97.5962px 364.304px;" id="el95vsq5j9nit" class="animable"></path><g id="elc2dpabhwdbv"><path d="M52.38,407.1s25.51,5.6,37.38,6.14c11.87,.54,37.55,8.63,37.55,8.63l16.79,3.03-2.9-9.81-16.91-8.99-67.5-13.68c-.83,5.64-3.92,13.55-4.41,14.69Z" style="opacity: 0.2; transform-origin: 98.24px 408.66px;" class="animable"></path></g><g id="elgv19ebg0uao"><polygon points="81.6 323.09 84.82 366.7 99.28 380.87 89.16 388.74 75.4 380.44 68.28 355.92 81.6 323.09" style="opacity: 0.2; transform-origin: 83.78px 355.915px;" class="animable"></polygon></g><polygon points="33.69 452.03 38.29 437.99 145.16 444.79 146.3 452.03 33.69 452.03" style="fill: rgb(114, 15, 173); transform-origin: 89.995px 445.01px;" id="elms0wcuf0g9" class="animable"></polygon><g id="el7o233hyn0al"><polygon points="33.69 452.03 38.29 437.99 145.16 444.79 146.3 452.03 33.69 452.03" style="opacity: 0.8; transform-origin: 89.995px 445.01px;" class="animable"></polygon></g></g><g id="eldx524fl2tqa" class="animable" style="transform-origin: 123.809px 367.018px;"><path d="M80.19,318.98c0,1.37-4.39,50.09-4.39,50.09,2.74,5.13,59.07,24.68,66.28,31.84l-12.26,12.61s-67.91-12.61-78.73-20.48c-9.23-6.71-8.46-18.49-8.46-34.57s3.52-39.5,3.52-39.5h34.04Z" style="fill: rgb(235, 179, 115); transform-origin: 92.3471px 366.245px;" id="eli9lrem7ydyr" class="animable"></path><path d="M74.5,288.91c13.84,5.78,3.27,79.88,3.27,79.88l13.62,5.76-8.37,31.55s-16.77-3.18-33.54-6.6c-17.72-3.61-13.63-40.7-8.68-75.83,4.79-33.96,17.5-41.52,33.69-34.76Z" style="fill: rgb(114, 15, 173); transform-origin: 63.9693px 346.378px;" id="elv9aw4uh3m09" class="animable"></path><g id="el9j9k6lg23il" class="animable" style="transform-origin: 180.15px 367.48px;"><path d="M152.59,404.47l-.2-22.9c0-.12,0-.24,.03-.36,.56-3.29,3.7-5.51,6.99-4.95l5.31,.91c1.11,.19,1.86,1.25,1.67,2.36-.19,1.11-1.25,1.86-2.36,1.67l-5.31-.91c-1.02-.17-1.98,.47-2.23,1.45l.2,22.69c0,1.13-.9,2.06-2.03,2.07-.12,0-.25,0-.37-.03-.96-.16-1.69-.99-1.7-2Zm1.84-22.92h0Z" style="fill: rgb(38, 50, 56); transform-origin: 159.405px 391.337px;" id="elonskjwk3v1q" class="animable"></path><polygon points="192.06 412.48 205.31 381.19 162.4 373.85 164.96 407.85 192.06 412.48" style="fill: rgb(38, 50, 56); transform-origin: 183.855px 393.165px;" id="elng5ml2fc8se" class="animable"></polygon><polygon points="193.28 447.38 192.06 412.48 164.96 407.85 149.23 439.84 193.28 447.38" style="fill: rgb(38, 50, 56); transform-origin: 171.255px 427.615px;" id="elhn3af74llyw" class="animable"></polygon><polygon points="211.07 382.17 187.66 373.32 183.34 372.58 162.68 373.9 211.07 382.17" style="fill: rgb(38, 50, 56); transform-origin: 186.875px 377.375px;" id="eldkek9es979w" class="animable"></polygon><g id="elknjxsau828"><polygon points="192.06 412.48 205.31 381.19 162.4 373.85 164.96 407.85 192.06 412.48" style="fill: rgb(255, 255, 255); opacity: 0.5; transform-origin: 183.855px 393.165px;" class="animable"></polygon></g><g id="elpdg7gyy4pr"><polygon points="193.28 447.38 192.06 412.48 164.96 407.85 149.23 439.84 193.28 447.38" style="fill: rgb(255, 255, 255); opacity: 0.5; transform-origin: 171.255px 427.615px;" class="animable"></polygon></g><g id="elbx526ckr6rm"><polygon points="211.07 382.17 187.66 373.32 183.34 372.58 162.68 373.9 211.07 382.17" style="fill: rgb(255, 255, 255); opacity: 0.5; transform-origin: 186.875px 377.375px;" class="animable"></polygon></g><g id="elrffis83b2h8"><path d="M193.08,379.09s-9.73,31.9-10.07,31.84c-.34-.06-11.23-1.92-11.23-1.92l1.65-33.28,19.66,3.36Z" style="fill: rgb(255, 255, 255); opacity: 0.3; transform-origin: 182.435px 393.33px;" class="animable"></path></g><g id="eluf27qt30mi"><polygon points="183 410.94 180.72 445.23 160.3 441.74 171.77 409.01 183 410.94" style="fill: rgb(255, 255, 255); opacity: 0.3; transform-origin: 171.65px 427.12px;" class="animable"></polygon></g><polygon points="188.24 373.42 190.89 368.16 188.29 365.31 185.44 364.82 182.29 366.69 182.88 372.5 188.24 373.42" style="fill: rgb(38, 50, 56); transform-origin: 186.59px 369.12px;" id="elypeuoqw6iq" class="animable"></polygon><polygon points="205.31 381.19 211.07 382.17 200.91 391.58 205.31 381.19" style="fill: rgb(38, 50, 56); transform-origin: 205.99px 386.385px;" id="el5v6xif7t45a" class="animable"></polygon><g id="elvqmbndheza"><polygon points="205.31 381.19 211.07 382.17 200.91 391.58 205.31 381.19" style="fill: rgb(255, 255, 255); opacity: 0.3; transform-origin: 205.99px 386.385px;" class="animable"></polygon></g><g id="elo76d3o7coeo" class="animable" style="transform-origin: 196.788px 324.65px;"><path d="M197.87,303.04c5.19,7.64,6.03,18.03,2.14,26.41-2.55,5.48-6.87,9.96-9.58,15.37-2.71,5.4-3.37,12.69,.95,16.9-1.16-4.84-.23-11.06,2.88-14.94,3.1-3.88,6.99-7.15,9.66-11.35,6.48-10.2,3.67-25.21-6.06-32.39Z" style="fill: rgb(114, 15, 173); transform-origin: 197.843px 332.38px;" id="eluspgqvrrxmj" class="animable"></path><g id="eliyjqw0q9bqh"><g style="opacity: 0.7; transform-origin: 197.843px 332.38px;" class="animable"><path d="M197.87,303.04c5.19,7.64,6.03,18.03,2.14,26.41-2.55,5.48-6.87,9.96-9.58,15.37-2.71,5.4-3.37,12.69,.95,16.9-1.16-4.84-.23-11.06,2.88-14.94,3.1-3.88,6.99-7.15,9.66-11.35,6.48-10.2,3.67-25.21-6.06-32.39Z" style="fill: rgb(255, 255, 255); transform-origin: 197.843px 332.38px;" id="el9798mo3zy5l" class="animable"></path></g></g><path d="M192.51,303.08c-1.04-4.72-1.89-10.71-.65-15.5-1.8,3.28-4.51,6.68-5.28,10.33-.77,3.66-.56,7.63,1.24,10.91,1.56,2.83,4.31,5.25,4.41,8.47,2.18-4.32,1.32-9.49,.28-14.21Z" style="fill: rgb(114, 15, 173); transform-origin: 189.872px 302.435px;" id="elr3wqpxqcoge" class="animable"></path><g id="elm78vpbytwgs"><g style="opacity: 0.7; transform-origin: 189.872px 302.435px;" class="animable"><path d="M192.51,303.08c-1.04-4.72-1.89-10.71-.65-15.5-1.8,3.28-4.51,6.68-5.28,10.33-.77,3.66-.56,7.63,1.24,10.91,1.56,2.83,4.31,5.25,4.41,8.47,2.18-4.32,1.32-9.49,.28-14.21Z" style="fill: rgb(255, 255, 255); transform-origin: 189.872px 302.435px;" id="elqusactobjw" class="animable"></path></g></g></g></g><path d="M132.79,395.28s11.2-9.55,13.37-8.18c2.17,1.37,3.89,2.75,3.89,2.75,0,0,11.73-2.45,12.49,.81,.76,3.25-1.27,4.62-1.27,4.62,0,0,4.63,1.56,2.94,4.89-1.69,3.32-2.86,4.52-2.86,4.52,0,0,2.58,2.32,1.19,4.96-1.39,2.64-3.82,2.64-3.82,2.64,0,0,3.44,4.08,0,5.76-3.44,1.68-26.36-1.87-29.79-4.7-3.43-2.82,3.86-18.07,3.86-18.07Z" style="fill: rgb(235, 179, 115); transform-origin: 146.297px 402.725px;" id="elg9logcxe5nk" class="animable"></path></g></g></g></g><g id="freepik--Mug--inject-224" class="animable" style="transform-origin: 247.435px 432.45px;"><g id="el8l52gtzj58a" class="animable" style="transform-origin: 247.435px 432.45px;"><path d="M250.2,448.28h0c9.32,0,17.12-6.37,18.07-14.75l2.03-17.96h-40.2l2.03,17.96c.95,8.38,8.75,14.75,18.07,14.75Z" style="fill: rgb(114, 15, 173); transform-origin: 250.2px 431.925px;" id="elo6fhb7mqrej" class="animable"></path><path d="M230.85,424.73c-1.14-1.44-2.7-2.37-4.47-2.26-1.45,.09-2.75,1.16-3.47,2.55-1.53,2.95,.67,7.03,4.03,7.4,1.97,.22,4.03-.73,5.53-2.1,.6-.55,1.53-.59,2.12,0,.56,.56,.6,1.57,0,2.12-1.97,1.81-4.56,3.09-7.28,3s-4.97-1.49-6.47-3.67c-1.42-2.07-1.88-4.87-.97-7.24s2.75-4.28,5.2-4.86c2.94-.7,6.05,.62,7.9,2.95,.5,.63,.62,1.5,0,2.12-.52,.52-1.62,.64-2.12,0h0Z" style="fill: rgb(114, 15, 173); transform-origin: 227.213px 427.463px;" id="el5xu7iss443h" class="animable"></path><path d="M274.78,445.88h-48.36c-.39,0-.7,.31-.7,.7h0c0,.39,.32,.7,.7,.7h5.06l1.6,2.05h34.96l1.67-2.05h5.06c.39,0,.7-.32,.7-.7h0c0-.39-.31-.7-.7-.7Z" style="fill: rgb(114, 15, 173); transform-origin: 250.595px 447.605px;" id="el1he3r434yd1" class="animable"></path><g id="eltheg9omh32j"><polygon points="231.48 447.29 269.72 447.29 268.91 448.28 231.87 448.28 231.48 447.29" style="opacity: 0.2; transform-origin: 250.6px 447.785px;" class="animable"></polygon></g></g></g><defs>     <filter id="active" height="200%">         <feMorphology in="SourceAlpha" result="DILATED" operator="dilate" radius="2"></feMorphology>                <feFlood flood-color="#32DFEC" flood-opacity="1" result="PINK"></feFlood>        <feComposite in="PINK" in2="DILATED" operator="in" result="OUTLINE"></feComposite>        <feMerge>            <feMergeNode in="OUTLINE"></feMergeNode>            <feMergeNode in="SourceGraphic"></feMergeNode>        </feMerge>    </filter>    <filter id="hover" height="200%">        <feMorphology in="SourceAlpha" result="DILATED" operator="dilate" radius="2"></feMorphology>                <feFlood flood-color="#ff0000" flood-opacity="0.5" result="PINK"></feFlood>        <feComposite in="PINK" in2="DILATED" operator="in" result="OUTLINE"></feComposite>        <feMerge>            <feMergeNode in="OUTLINE"></feMergeNode>            <feMergeNode in="SourceGraphic"></feMergeNode>        </feMerge>            <feColorMatrix type="matrix" values="0   0   0   0   0                0   1   0   0   0                0   0   0   0   0                0   0   0   1   0 "></feColorMatrix>    </filter></defs></svg>