<svg class="animated" id="freepik_stories-ninja" xmlns="http://www.w3.org/2000/svg" viewBox="0 0 500 500" version="1.1" xmlns:xlink="http://www.w3.org/1999/xlink" xmlns:svgjs="http://svgjs.com/svgjs"><style>svg#freepik_stories-ninja:not(.animated) .animable {opacity: 0;}svg#freepik_stories-ninja.animated #freepik--Character--inject-20 {animation: 3.6s 1 forwards cubic-bezier(.36,-0.01,.5,1.38) slideDown,3s Infinite  linear floating;animation-delay: 0s,3.6s;}            @keyframes slideDown {                0% {                    opacity: 0;                    transform: translateY(-30px);                }                100% {                    opacity: 1;                    transform: translateY(0);                }            }                    @keyframes floating {                0% {                    opacity: 1;                    transform: translateY(0px);                }                50% {                    transform: translateY(-10px);                }                100% {                    opacity: 1;                    transform: translateY(0px);                }            }        .animator-hidden { display: none; }</style><g id="freepik--Floor--inject-20" class="animable animator-hidden" style="transform-origin: 250px 347.34px;"><ellipse id="freepik--floor--inject-20" cx="250" cy="347.34" rx="243.33" ry="140.49" style="fill: rgb(245, 245, 245); transform-origin: 250px 347.34px;" class="animable"></ellipse></g><g id="freepik--Shadows--inject-20" class="animable animator-hidden" style="transform-origin: 249.995px 361.352px;"><polygon id="freepik--Shadow--inject-20" points="416.54 336.38 471.99 304.37 416.54 272.35 361.08 304.37 416.54 336.38" style="fill: rgb(224, 224, 224); transform-origin: 416.535px 304.365px;" class="animable"></polygon><polygon id="freepik--shadow--inject-20" points="83.45 336.38 138.9 304.37 83.45 272.35 28 304.37 83.45 336.38" style="fill: rgb(224, 224, 224); transform-origin: 83.45px 304.365px;" class="animable"></polygon><path id="freepik--shadow--inject-20" d="M117,443.83c4,5.53,12,7.15,18.22,6.32,20.12-2.69,34.83-21.07,51.61-33,13.08-9.3,28.95-17.56,36.52-20.23C239,391.38,262,389,278.6,388.76c24.9-.34,48.9,4.21,73.37-.38,6-1.14,11.08-2.65,15.36-6.42,3.38-3,5-8.3,2.87-12.29-2.37-4.5-9.07-8.35-12.8-10.28-25.59-13.22-50.52-16.31-78.94-19-25.18-2.37-51.12-3.64-75.94,2.48-24.33,6-47.22,18.35-64.91,36.19-12.3,12.4-21.89,29.06-23.94,43.47C112.54,430.48,112.36,437.49,117,443.83Z" style="fill: rgb(224, 224, 224); transform-origin: 242.079px 394.392px;" class="animable"></path></g><g id="freepik--Clouds--inject-20" class="animable animator-hidden" style="transform-origin: 85.6002px 46.0434px;"><g id="freepik--clouds--inject-20" class="animable" style="transform-origin: 85.6002px 46.0434px;"><path d="M84.42,32.59,79,35.71c0-.24,0-.48,0-.72V33.43c0-2.79-2-3.92-4.37-2.53a8.48,8.48,0,0,0-2.6,2.51c-.4-3.51-3.15-4.81-6.48-2.88a14.44,14.44,0,0,0-6.54,11.32v2.34a6.19,6.19,0,0,0,.55,2.71l-4.49,2.6a5.34,5.34,0,0,0-2.42,4.19c0,1.55,1.08,2.18,2.42,1.4L84.42,38.18A5.34,5.34,0,0,0,86.84,34C86.84,32.44,85.76,31.81,84.42,32.59Z" style="fill: rgb(235, 235, 235); transform-origin: 69.745px 42.5303px;" id="eltszhgh428" class="animable"></path><path d="M116.74,45.16l-4.08,2.35a4.89,4.89,0,0,0,0-.54V45.79c0-2.1-1.47-3-3.29-1.91a6.53,6.53,0,0,0-2,1.89c-.3-2.64-2.37-3.62-4.89-2.17a10.88,10.88,0,0,0-4.93,8.54v1.77A4.76,4.76,0,0,0,98,56l-3.39,2a4,4,0,0,0-1.82,3.17c0,1.16.81,1.63,1.82,1l22.11-12.76a4,4,0,0,0,1.83-3.17C118.57,45,117.75,44.57,116.74,45.16Z" style="fill: rgb(235, 235, 235); transform-origin: 105.67px 52.6901px;" id="elk7z0txij84" class="animable"></path></g></g><g id="freepik--Plants--inject-20" class="animable" style="transform-origin: 250.03px 277.325px;"><g id="freepik--Grass--inject-20" class="animable" style="transform-origin: 26.03px 277.325px;"><path d="M35.87,261c3.69,18.88-1.17,42.89-1.17,42.89l4.06-2.35C41.63,275.09,35.87,261,35.87,261Z" style="fill: #B42FCB; transform-origin: 37.1308px 282.445px;" id="elk43serndwe" class="animable"></path><g id="eluh8k8dqe1y"><path d="M35.87,261c3.69,18.88-1.17,42.89-1.17,42.89l4.06-2.35C41.63,275.09,35.87,261,35.87,261Z" style="opacity: 0.15; transform-origin: 37.1308px 282.445px;" class="animable" id="el21kq7na6zgi"></path></g><g id="el1p1iaqncszx"><path d="M36.8,302.53c0,.08,0,.14,0,.21l2-1.16C41.63,275.09,35.87,261,35.87,261,39.05,270.19,38.85,292.24,36.8,302.53Z" style="opacity: 0.15; transform-origin: 37.7261px 281.87px;" class="animable" id="el3nfaa79mmw6"></path></g><path d="M34.7,303.93S33,286.81,26.58,272.06,12,250.72,12,250.72s9.93,4.52,18.06,20.38a101.75,101.75,0,0,1,10,29.75Z" style="fill: #B42FCB; transform-origin: 26.03px 277.325px;" id="elvhm4g1attz" class="animable"></path><g id="elnf1usy42nw"><path d="M37.5,302.31h0L40,300.85a101.75,101.75,0,0,0-10-29.75C21.93,255.24,12,250.72,12,250.72,21.68,257,34.59,277.38,37.5,302.31Z" style="opacity: 0.1; transform-origin: 26px 276.515px;" class="animable" id="elkuy16i2wx"></path></g><path d="M34.7,303.93s-2.84-14.07-20.31-25.8c0,0,16.53,6.37,24.37,23.45Z" style="fill: #B42FCB; transform-origin: 26.575px 291.03px;" id="elmilkn90u22" class="animable"></path><g id="elh4szi1f15b"><path d="M36.8,302.53l.06.15,1.9-1.1c-7.84-17.08-24.37-23.45-24.37-23.45C22.52,282.82,32.41,290.81,36.8,302.53Z" style="opacity: 0.1; transform-origin: 26.575px 290.405px;" class="animable" id="el9nsuy5g8tw5"></path></g></g><g id="freepik--grass--inject-20" class="animable" style="transform-origin: 474px 277.325px;"><path d="M464.11,261c-3.69,18.88,1.17,42.89,1.17,42.89l-4.06-2.34C458.35,275.1,464.11,261,464.11,261Z" style="fill: #B42FCB; transform-origin: 462.849px 282.445px;" id="elxqsyyg8pw8l" class="animable"></path><g id="elxfc8931p7hq"><path d="M464.11,261c-3.69,18.88,1.17,42.89,1.17,42.89l-4.06-2.34C458.35,275.1,464.11,261,464.11,261Z" style="opacity: 0.15; transform-origin: 462.849px 282.445px;" class="animable" id="elr1qaqqdt86s"></path></g><g id="el10thtnkekm6g"><path d="M463.18,302.53a1.91,1.91,0,0,1,0,.21l-2-1.15c-2.87-26.49,2.89-40.55,2.89-40.55C460.93,270.19,461.13,292.24,463.18,302.53Z" style="opacity: 0.15; transform-origin: 462.224px 281.89px;" class="animable" id="elslsbbw4v6t"></path></g><path d="M465.28,303.93s1.67-17.12,8.12-31.87S488,250.72,488,250.72s-9.93,4.53-18.06,20.38a101.75,101.75,0,0,0-10,29.75Z" style="fill: #B42FCB; transform-origin: 473.97px 277.325px;" id="elnp1sz9h8tmh" class="animable"></path><g id="elst3x8ysz5cp"><path d="M462.48,302.31h0L460,300.85a101.75,101.75,0,0,1,10-29.75c8.13-15.85,18.06-20.38,18.06-20.38C478.3,257,465.4,277.38,462.48,302.31Z" style="opacity: 0.1; transform-origin: 474.03px 276.515px;" class="animable" id="elcmh3dt4q7ym"></path></g><path d="M465.28,303.93s2.84-14.07,20.31-25.8c0,0-16.53,6.37-24.37,23.46Z" style="fill: #B42FCB; transform-origin: 473.405px 291.03px;" id="el70vcamf1ceb" class="animable"></path><g id="els378chgfydh"><path d="M463.18,302.53c0,.06,0,.1-.06.15l-1.9-1.09c7.84-17.09,24.37-23.46,24.37-23.46C477.47,282.82,467.58,290.81,463.18,302.53Z" style="opacity: 0.1; transform-origin: 473.405px 290.405px;" class="animable" id="el98q0pqy7s"></path></g></g></g><g id="freepik--light-posts--inject-20" class="animable animator-hidden" style="transform-origin: 249.99px 205.861px;"><g id="freepik--Lamp--inject-20" class="animable" style="transform-origin: 416.535px 205.861px;"><polygon points="416.53 320.81 367.79 292.67 416.54 264.53 465.28 292.67 416.53 320.81" style="fill: rgb(250, 250, 250); transform-origin: 416.535px 292.67px;" id="elxbx8kzwjtq" class="animable"></polygon><polygon points="416.53 320.81 416.53 332.07 465.28 303.93 465.28 292.67 416.53 320.81" style="fill: rgb(240, 240, 240); transform-origin: 440.905px 312.37px;" id="el0zln9wk79gq" class="animable"></polygon><polygon points="416.53 320.81 416.53 332.07 367.79 303.93 367.79 292.67 416.53 320.81" style="fill: rgb(230, 230, 230); transform-origin: 392.16px 312.37px;" id="elry8gh6fhbc7" class="animable"></polygon><polygon points="455.53 281.42 416.53 303.93 416.53 315.19 455.53 292.67 455.53 281.42" style="fill: rgb(240, 240, 240); transform-origin: 436.03px 298.305px;" id="elbg27muw5esv" class="animable"></polygon><polygon points="377.54 292.67 377.54 281.42 416.53 303.93 416.53 315.19 377.54 292.67" style="fill: rgb(230, 230, 230); transform-origin: 397.035px 298.305px;" id="el1yliijlofhe" class="animable"></polygon><polygon points="416.53 287.05 387.29 270.16 416.54 253.27 445.78 270.16 416.53 287.05" style="fill: rgb(250, 250, 250); transform-origin: 416.535px 270.16px;" id="el9axn7grx4rl" class="animable"></polygon><polygon points="416.53 287.05 416.53 303.93 377.54 281.42 387.29 270.16 416.53 287.05" style="fill: rgb(224, 224, 224); transform-origin: 397.035px 287.045px;" id="elha2sjsuzs9a" class="animable"></polygon><g id="elhnt0fgwqdau"><polygon points="416.53 287.05 416.53 303.93 377.54 281.42 387.29 270.16 416.53 287.05" style="opacity: 0.03; transform-origin: 397.035px 287.045px;" class="animable" id="elzbk8uty4btp"></polygon></g><polygon points="445.78 270.16 455.53 281.42 416.53 303.93 416.53 287.05 445.78 270.16" style="fill: rgb(235, 235, 235); transform-origin: 436.03px 287.045px;" id="elrk303yla9y" class="animable"></polygon><path d="M431.16,177.29v92.87c0,2.16-1.43,4.32-4.29,6-5.71,3.3-15,3.3-20.68,0-2.85-1.65-4.28-3.81-4.28-6V177.29Z" style="fill: rgb(235, 235, 235); transform-origin: 416.535px 227.963px;" id="eltodeyf4qmf" class="animable"></path><g id="elc0t4wjl0b7d"><path d="M431.16,206.91c0,2.16-1.43,4.32-4.29,6-5.71,3.3-15,3.3-20.68,0-2.85-1.65-4.28-3.81-4.28-6V195.78c0,2.16,1.43,4.32,4.28,6,5.72,3.29,15,3.29,20.68,0,2.86-1.65,4.29-3.81,4.29-6Z" style="opacity: 0.1; transform-origin: 416.535px 205.583px;" class="animable" id="elempev5qm3b"></path></g><polygon points="455.53 174.47 416.53 196.99 416.53 208.25 455.53 185.73 455.53 174.47" style="fill: rgb(240, 240, 240); transform-origin: 436.03px 191.36px;" id="elbbbaqz8p01k" class="animable"></polygon><polygon points="377.54 185.73 377.54 174.47 416.53 196.99 416.53 208.25 377.54 185.73" style="fill: rgb(224, 224, 224); transform-origin: 397.035px 191.36px;" id="elp9v1ppz5amm" class="animable"></polygon><polygon points="377.54 174.47 416.54 151.96 455.53 174.47 416.53 196.99 377.54 174.47" style="fill: rgb(250, 250, 250); transform-origin: 416.535px 174.475px;" id="elb4obtba01qj" class="animable"></polygon><polygon points="387.29 157.59 416.54 140.7 445.78 157.59 416.53 174.47 387.29 157.59" style="fill: rgb(250, 250, 250); transform-origin: 416.535px 157.585px;" id="elz31j89vvweb" class="animable"></polygon><polygon points="387.29 174.47 387.29 157.59 416.53 174.47 416.53 191.36 387.29 174.47" style="fill: rgb(224, 224, 224); transform-origin: 401.91px 174.475px;" id="el4n9ptkk0pq7" class="animable"></polygon><polygon points="416.53 191.36 445.78 174.47 445.78 157.59 416.53 174.47 416.53 191.36" style="fill: rgb(240, 240, 240); transform-origin: 431.155px 174.475px;" id="eltxn185q88k8" class="animable"></polygon><g id="elu95agpsppj"><polygon points="430.48 154.38 416.53 146.3 402.58 154.38 412.93 160.36 420.13 160.36 430.48 154.38" style="opacity: 0.2; transform-origin: 416.53px 153.33px;" class="animable" id="elifiv3rhfobb"></polygon></g><path d="M416.53,118.17V146.3L436,157.58V129.43Zm3.6,6.24,12.29,7.09v19.83l-12.29-7.1Z" style="fill: rgb(224, 224, 224); transform-origin: 426.265px 137.875px;" id="elblefsgrgyps" class="animable"></path><polygon points="422.07 143.1 420.13 144.23 420.13 124.41 422.07 125.53 422.07 143.1" style="fill: rgb(224, 224, 224); transform-origin: 421.1px 134.32px;" id="el5qu4vib48ng" class="animable"></polygon><g id="elwcp4ztj9t1q"><polygon points="422.07 143.1 420.13 144.23 420.13 124.41 422.07 125.53 422.07 143.1" style="opacity: 0.05; transform-origin: 421.1px 134.32px;" class="animable" id="el0htrftohlcmt"></polygon></g><polygon points="432.42 151.33 432.42 149.08 422.07 143.1 420.13 144.23 432.42 151.33" style="fill: rgb(235, 235, 235); transform-origin: 426.275px 147.215px;" id="ela3soa1bbvok" class="animable"></polygon><path d="M397,129.43v28.15l19.49-11.28V118.17Zm15.89,14.8-12.29,7.1V131.5l12.29-7.09Z" style="fill: rgb(235, 235, 235); transform-origin: 406.745px 137.875px;" id="elbuldct7wr2c" class="animable"></path><polygon points="410.99 143.1 412.93 144.23 412.93 124.41 410.99 125.53 410.99 143.1" style="fill: rgb(224, 224, 224); transform-origin: 411.96px 134.32px;" id="elf89lx0nqpqi" class="animable"></polygon><g id="eliye00l3amdh"><polygon points="410.99 143.1 412.93 144.23 412.93 124.41 410.99 125.53 410.99 143.1" style="opacity: 0.05; transform-origin: 411.96px 134.32px;" class="animable" id="elfaxri7z2vof"></polygon></g><polygon points="400.64 151.33 400.64 149.08 410.99 143.1 412.93 144.23 400.64 151.33" style="fill: rgb(245, 245, 245); transform-origin: 406.785px 147.215px;" id="elsc8349rybd" class="animable"></polygon><path d="M397,129.45v28.13l19.49,11.28V140.71Zm3.6,6.24,12.29,7.09v19.83l-12.29-7.1Z" style="fill: rgb(224, 224, 224); transform-origin: 406.745px 149.155px;" id="elf7qev5ucnmo" class="animable"></path><polygon points="402.58 154.38 400.64 155.51 400.64 135.69 402.58 136.81 402.58 154.38" style="fill: rgb(224, 224, 224); transform-origin: 401.61px 145.6px;" id="el2830sl5qggr" class="animable"></polygon><g id="el9f0k6a70i4b"><polygon points="402.58 154.38 400.64 155.51 400.64 135.69 402.58 136.81 402.58 154.38" style="opacity: 0.05; transform-origin: 401.61px 145.6px;" class="animable" id="el3wh3tsy0kfn"></polygon></g><polygon points="412.93 162.61 412.93 160.36 402.58 154.38 400.64 155.51 412.93 162.61" style="fill: rgb(235, 235, 235); transform-origin: 406.785px 158.495px;" id="eldgaxqgpsji" class="animable"></polygon><path d="M416.53,140.71v28.15L436,157.58V129.45Zm15.89,14.8-12.29,7.1V142.78l12.29-7.09Z" style="fill: rgb(235, 235, 235); transform-origin: 426.265px 149.155px;" id="ella39wjzwttp" class="animable"></path><polygon points="430.48 154.38 432.42 155.51 432.42 135.69 430.48 136.81 430.48 154.38" style="fill: rgb(224, 224, 224); transform-origin: 431.45px 145.6px;" id="elxcvffu35mgd" class="animable"></polygon><g id="elhigdrcacrl"><polygon points="430.48 154.38 432.42 155.51 432.42 135.69 430.48 136.81 430.48 154.38" style="opacity: 0.05; transform-origin: 431.45px 145.6px;" class="animable" id="el2gpq5nlbk2f"></polygon></g><polygon points="420.13 162.61 420.13 160.36 430.48 154.38 432.42 155.51 420.13 162.61" style="fill: rgb(245, 245, 245); transform-origin: 426.275px 158.495px;" id="elv4232w0nv2" class="animable"></polygon><g id="elwjgi7jgzfw"><polygon points="416.53 143.02 397.04 131.77 397.04 129.45 416.53 140.71 416.53 143.02" style="opacity: 0.05; transform-origin: 406.785px 136.235px;" class="animable" id="el9hc5eeeqhys"></polygon></g><g id="elklgr5hj1q9"><polygon points="436.02 131.78 416.54 143.03 416.53 143.02 416.53 140.71 436.02 129.45 436.02 131.78" style="opacity: 0.05; transform-origin: 426.275px 136.24px;" class="animable" id="elx6ni7ap80vi"></polygon></g><path d="M392.12,113.1a18.67,18.67,0,0,0,9.71-2.27,43.59,43.59,0,0,0,9.79-9l4.92-6.17,4.92,6.17a43.38,43.38,0,0,0,9.79,9,18.63,18.63,0,0,0,9.7,2.27l4.83-.54v11.26l-29.26,16.89-29.24-16.89V112.56Z" style="fill: rgb(250, 250, 250); transform-origin: 416.53px 118.185px;" id="el4ztuxgisv8" class="animable"></path><path d="M387.29,123.82V112.56l4.87,6.16a43.23,43.23,0,0,0,9.75,9,18.88,18.88,0,0,0,9.75,2.29l4.88-.53v11.26Z" style="fill: rgb(224, 224, 224); transform-origin: 401.915px 126.65px;" id="elxvud4pavi9j" class="animable"></path><path d="M445.78,123.82V112.56l-4.92,6.17a43.68,43.68,0,0,1-9.79,9,18.75,18.75,0,0,1-9.7,2.27l-4.83-.54v11.26Z" style="fill: rgb(235, 235, 235); transform-origin: 431.16px 126.64px;" id="elkzyegfp2zz" class="animable"></path><polygon points="401.22 112.92 397.04 118.19 416.54 129.45 416.54 121.77 401.22 112.92" style="fill: rgb(224, 224, 224); transform-origin: 406.79px 121.185px;" id="el88l1stoogy" class="animable"></polygon><polygon points="436.03 118.19 431.85 112.92 416.54 121.77 416.54 129.45 436.03 118.19" style="fill: rgb(235, 235, 235); transform-origin: 426.285px 121.185px;" id="eln9m0d9uxxge" class="animable"></polygon><polygon points="416.54 121.77 401.22 112.92 416.54 104.08 431.85 112.92 416.54 121.77" style="fill: rgb(245, 245, 245); transform-origin: 416.535px 112.925px;" id="elorzxhv5yp9" class="animable"></polygon><g id="el8ctfy7bb8pu"><circle cx="416.53" cy="98.07" r="15.31" style="fill: rgb(235, 235, 235); transform-origin: 416.53px 98.07px; transform: rotate(-13.28deg);" class="animable" id="elu073ningyp"></circle></g><g id="el3gbhfp7w90g"><path d="M412,106.68c8.76,4.36,18.21-1.89,19.55-5.85a15.3,15.3,0,1,1-27.49-11.66C402.39,92.52,403.11,102.24,412,106.68Z" style="opacity: 0.05; transform-origin: 416.375px 101.274px;" class="animable" id="elxpzohllmf8d"></path></g><path d="M413,87.83c-1.74,3,0,7.3,4,9.56s8.51,1.66,10.25-1.36,0-7.3-3.94-9.57S414.78,84.81,413,87.83Z" style="fill: rgb(240, 240, 240); transform-origin: 420.126px 91.9247px;" id="elbg0m59xnmku" class="animable"></path><g id="eluinvgkmchj"><polygon points="442.39 301.97 446.75 303.37 445.78 310.6 445.78 303.93 442.39 301.97" style="opacity: 0.1; transform-origin: 444.57px 306.285px;" class="animable" id="elx1ansgwhuvj"></polygon></g><g id="el0nktkpg3jf6"><polygon points="445.78 310.6 445.2 304.27 442.39 301.97 445.78 303.93 445.78 310.6" style="opacity: 0.3; transform-origin: 444.085px 306.285px;" class="animable" id="elgq5yoyak30b"></polygon></g><g id="els7r1d9p70l"><polygon points="377.54 309.56 375.89 301.97 375.89 308.61 377.54 309.56" style="opacity: 0.1; transform-origin: 376.715px 305.765px;" class="animable" id="eleafpk7bwj8i"></polygon></g><g id="eltr09jo9c568"><polygon points="375.89 301.97 375.08 308.14 375.89 308.61 375.89 301.97" style="opacity: 0.3; transform-origin: 375.485px 305.29px;" class="animable" id="eliybqf7bgwrb"></polygon></g><g id="el6egobf9czjl"><polygon points="445.98 279.14 450.65 284.23 450.65 289.86 449.56 284.89 445.98 279.14" style="opacity: 0.1; transform-origin: 448.315px 284.5px;" class="animable" id="elgj22n4z80of"></polygon></g><g id="el6pq53nz1js"><polygon points="445.98 279.14 448.68 285.37 450.65 289.86 449.56 284.89 445.98 279.14" style="opacity: 0.3; transform-origin: 448.315px 284.5px;" class="animable" id="elxstuh4wav6"></polygon></g><g id="elis3vsijgiw"><polygon points="411.66 188.55 406.79 191.36 406.79 200.39 405.27 190.49 411.66 188.55" style="opacity: 0.1; transform-origin: 408.465px 194.47px;" class="animable" id="ellyoe6ccjo5"></polygon></g><g id="elr8waotmx4k"><polygon points="411.66 188.55 407.97 192.04 406.79 200.39 406.79 191.36 411.66 188.55" style="opacity: 0.3; transform-origin: 409.225px 194.47px;" class="animable" id="el3f8f8412f0s"></polygon></g><g id="elp2p7p0ovv7r"><polygon points="433.63 161.83 436.02 163.23 436.02 171.58 434.83 163.91 433.63 161.83" style="opacity: 0.3; transform-origin: 434.825px 166.705px;" class="animable" id="el1ee565zov81"></polygon></g><g id="el8gsc6f5ah3v"><polygon points="433.63 161.83 436.75 162.8 436.02 171.58 436.02 163.23 433.63 161.83" style="opacity: 0.1; transform-origin: 435.19px 166.705px;" class="animable" id="el7sgb6cr12bq"></polygon></g><g id="elj34asfc763d"><polygon points="397.04 196.99 396.11 188.26 396.11 196.45 397.04 196.99" style="opacity: 0.3; transform-origin: 396.575px 192.625px;" class="animable" id="elsion4hr46cd"></polygon></g><g id="el9k2p4z63af8"><polygon points="396.11 188.26 395.25 195.96 396.11 196.45 396.11 188.26" style="opacity: 0.1; transform-origin: 395.68px 192.355px;" class="animable" id="el2vcp20ruvdd"></polygon></g></g><g id="freepik--lamp--inject-20" class="animable" style="transform-origin: 83.445px 205.861px;"><polygon points="83.45 320.81 132.19 292.67 83.45 264.53 34.7 292.67 83.45 320.81" style="fill: rgb(250, 250, 250); transform-origin: 83.445px 292.67px;" id="elp7tz3ir6oip" class="animable"></polygon><polygon points="83.45 320.81 83.45 332.07 34.7 303.93 34.7 292.67 83.45 320.81" style="fill: rgb(240, 240, 240); transform-origin: 59.075px 312.37px;" id="elltruve1k7ts" class="animable"></polygon><polygon points="83.45 320.81 83.45 332.07 132.19 303.93 132.19 292.67 83.45 320.81" style="fill: rgb(230, 230, 230); transform-origin: 107.82px 312.37px;" id="el79k75i99vni" class="animable"></polygon><polygon points="44.45 281.42 83.45 303.93 83.45 315.19 44.45 292.67 44.45 281.42" style="fill: rgb(240, 240, 240); transform-origin: 63.95px 298.305px;" id="elw2t4vl1523m" class="animable"></polygon><polygon points="122.44 292.67 122.44 281.42 83.45 303.93 83.45 315.19 122.44 292.67" style="fill: rgb(224, 224, 224); transform-origin: 102.945px 298.305px;" id="elfrv7sqsqaxh" class="animable"></polygon><polygon points="83.45 287.04 112.69 270.16 83.45 253.27 54.2 270.16 83.45 287.04" style="fill: rgb(250, 250, 250); transform-origin: 83.445px 270.155px;" id="elt84xlz1zyyq" class="animable"></polygon><polygon points="83.45 287.04 83.45 303.93 122.44 281.42 112.69 270.16 83.45 287.04" style="fill: rgb(224, 224, 224); transform-origin: 102.945px 287.045px;" id="el93pn84rhhp6" class="animable"></polygon><g id="elwm5kkrsspm"><polygon points="83.45 287.04 83.45 303.93 122.44 281.42 112.69 270.16 83.45 287.04" style="opacity: 0.03; transform-origin: 102.945px 287.045px;" class="animable" id="elbqwja3u7o3s"></polygon></g><polygon points="54.2 270.16 44.45 281.42 83.45 303.93 83.45 287.04 54.2 270.16" style="fill: rgb(235, 235, 235); transform-origin: 63.95px 287.045px;" id="el7py0e61rp37" class="animable"></polygon><path d="M68.82,177.29v92.87c0,2.16,1.43,4.32,4.29,6,5.71,3.3,15,3.3,20.68,0,2.85-1.65,4.28-3.81,4.28-6V177.29Z" style="fill: rgb(235, 235, 235); transform-origin: 83.445px 227.963px;" id="eljfuvo8isci" class="animable"></path><g id="elg1ldnaenlpr"><path d="M68.82,206.91c0,2.16,1.43,4.32,4.29,6,5.71,3.3,15,3.3,20.68,0,2.85-1.65,4.28-3.81,4.28-6V195.78c0,2.16-1.43,4.32-4.28,6-5.71,3.29-15,3.29-20.68,0-2.86-1.65-4.29-3.81-4.29-6Z" style="opacity: 0.1; transform-origin: 83.445px 205.583px;" class="animable" id="eliuu6ffn4i4j"></path></g><polygon points="44.45 174.47 83.45 196.99 83.45 208.25 44.45 185.73 44.45 174.47" style="fill: rgb(240, 240, 240); transform-origin: 63.95px 191.36px;" id="elie8c3jwc76q" class="animable"></polygon><polygon points="122.44 185.73 122.44 174.47 83.45 196.99 83.45 208.25 122.44 185.73" style="fill: rgb(224, 224, 224); transform-origin: 102.945px 191.36px;" id="elqxw76mphkk" class="animable"></polygon><polygon points="122.44 174.47 83.45 151.96 44.45 174.47 83.45 196.99 122.44 174.47" style="fill: rgb(250, 250, 250); transform-origin: 83.445px 174.475px;" id="el4y3zdflx2pj" class="animable"></polygon><polygon points="112.69 157.59 83.45 140.7 54.2 157.59 83.45 174.47 112.69 157.59" style="fill: rgb(250, 250, 250); transform-origin: 83.445px 157.585px;" id="elbk3vsq9r1xq" class="animable"></polygon><polygon points="112.69 174.47 112.69 157.59 83.45 174.47 83.45 191.36 112.69 174.47" style="fill: rgb(224, 224, 224); transform-origin: 98.07px 174.475px;" id="elc584jak4y96" class="animable"></polygon><polygon points="83.45 191.36 54.2 174.47 54.2 157.59 83.45 174.47 83.45 191.36" style="fill: rgb(240, 240, 240); transform-origin: 68.825px 174.475px;" id="elkzf5qf9d9lq" class="animable"></polygon><g id="elx6u3rgxvgk"><polygon points="69.5 154.38 83.45 146.3 97.4 154.38 87.05 160.36 79.85 160.36 69.5 154.38" style="opacity: 0.2; transform-origin: 83.45px 153.33px;" class="animable" id="elq3aivhn4j"></polygon></g><path d="M64,129.43v28.15L83.45,146.3V118.17Zm15.89,14.8-12.29,7.1V131.5l12.29-7.09Z" style="fill: rgb(224, 224, 224); transform-origin: 73.725px 137.875px;" id="el9107pqnbmin" class="animable"></path><polygon points="77.91 143.1 79.85 144.23 79.85 124.41 77.91 125.53 77.91 143.1" style="fill: rgb(224, 224, 224); transform-origin: 78.88px 134.32px;" id="el5qpigeod6fx" class="animable"></polygon><g id="elrrzf1g3xnp9"><polygon points="77.91 143.1 79.85 144.23 79.85 124.41 77.91 125.53 77.91 143.1" style="opacity: 0.05; transform-origin: 78.88px 134.32px;" class="animable" id="elo943dcds51"></polygon></g><polygon points="67.56 151.32 67.56 149.08 77.91 143.1 79.85 144.23 67.56 151.32" style="fill: rgb(235, 235, 235); transform-origin: 73.705px 147.21px;" id="el2izwlzo3dfv" class="animable"></polygon><path d="M83.45,118.17V146.3l19.49,11.28V129.43Zm3.6,6.24,12.29,7.09v19.83l-12.29-7.1Z" style="fill: rgb(235, 235, 235); transform-origin: 93.195px 137.875px;" id="eli2t8krs7w5" class="animable"></path><polygon points="88.99 143.1 87.05 144.23 87.05 124.41 88.99 125.53 88.99 143.1" style="fill: rgb(224, 224, 224); transform-origin: 88.02px 134.32px;" id="eltjrz07cme6" class="animable"></polygon><g id="elbv9wd5dkxlf"><polygon points="88.99 143.1 87.05 144.23 87.05 124.41 88.99 125.53 88.99 143.1" style="opacity: 0.05; transform-origin: 88.02px 134.32px;" class="animable" id="el6m666roeegk"></polygon></g><polygon points="99.34 151.32 99.34 149.08 88.99 143.1 87.05 144.23 99.34 151.32" style="fill: rgb(245, 245, 245); transform-origin: 93.195px 147.21px;" id="ell9s4dl1xn8s" class="animable"></polygon><path d="M83.45,140.71v28.15l19.49-11.28V129.45Zm15.89,14.8-12.29,7.1V142.78l12.29-7.09Z" style="fill: rgb(224, 224, 224); transform-origin: 93.195px 149.155px;" id="elbul8h5y65pg" class="animable"></path><polygon points="97.4 154.38 99.34 155.51 99.34 135.69 97.4 136.81 97.4 154.38" style="fill: rgb(224, 224, 224); transform-origin: 98.37px 145.6px;" id="el7nuwtllqhyx" class="animable"></polygon><g id="elrumzb9yjwso"><polygon points="97.4 154.38 99.34 155.51 99.34 135.69 97.4 136.81 97.4 154.38" style="opacity: 0.05; transform-origin: 98.37px 145.6px;" class="animable" id="el5mjlecqkc0j"></polygon></g><polygon points="87.05 162.6 87.05 160.36 97.4 154.38 99.34 155.51 87.05 162.6" style="fill: rgb(235, 235, 235); transform-origin: 93.195px 158.49px;" id="el6owr4b1xfxo" class="animable"></polygon><path d="M64,129.45v28.13l19.49,11.28V140.71Zm3.6,6.24,12.29,7.09v19.83l-12.29-7.1Z" style="fill: rgb(235, 235, 235); transform-origin: 73.745px 149.155px;" id="eltdh06k8i7w" class="animable"></path><polygon points="69.5 154.38 67.56 155.51 67.56 135.69 69.5 136.81 69.5 154.38" style="fill: rgb(224, 224, 224); transform-origin: 68.53px 145.6px;" id="elkpkeatal53" class="animable"></polygon><g id="elzy20pege3ph"><polygon points="69.5 154.38 67.56 155.51 67.56 135.69 69.5 136.81 69.5 154.38" style="opacity: 0.05; transform-origin: 68.53px 145.6px;" class="animable" id="elb5iv6bmiouq"></polygon></g><polygon points="79.85 162.6 79.85 160.36 69.5 154.38 67.56 155.51 79.85 162.6" style="fill: rgb(245, 245, 245); transform-origin: 73.705px 158.49px;" id="eli27yty33xcb" class="animable"></polygon><g id="el0ogducjzglpc"><polygon points="83.45 143.02 102.94 131.77 102.94 129.45 83.45 140.71 83.45 143.02" style="opacity: 0.05; transform-origin: 93.195px 136.235px;" class="animable" id="elncm3i06uav"></polygon></g><g id="el5vz4zj49vq4"><polygon points="63.96 131.78 83.44 143.03 83.45 143.02 83.45 140.71 63.96 129.45 63.96 131.78" style="opacity: 0.05; transform-origin: 73.705px 136.24px;" class="animable" id="elb0lh1opsyc5"></polygon></g><path d="M107.86,113.1a18.69,18.69,0,0,1-9.71-2.27,43.59,43.59,0,0,1-9.79-9l-4.92-6.17-4.92,6.17a43.38,43.38,0,0,1-9.79,9A18.63,18.63,0,0,1,59,113.1l-4.83-.54v11.26l29.26,16.89,29.24-16.89V112.56Z" style="fill: rgb(250, 250, 250); transform-origin: 83.42px 118.185px;" id="elzlkcnvc1l5" class="animable"></path><path d="M112.69,123.82V112.56l-4.87,6.16a43.23,43.23,0,0,1-9.75,9A19,19,0,0,1,88.32,130l-4.87-.53v11.26Z" style="fill: rgb(224, 224, 224); transform-origin: 98.07px 126.645px;" id="el0ykdjjuj3eo" class="animable"></path><path d="M54.2,123.82V112.56l4.92,6.17a43.9,43.9,0,0,0,9.79,9,18.75,18.75,0,0,0,9.7,2.27l4.84-.54v11.26Z" style="fill: rgb(235, 235, 235); transform-origin: 68.825px 126.64px;" id="elht63fsn56wv" class="animable"></path><polygon points="98.76 112.92 102.94 118.19 83.45 129.45 83.45 121.77 98.76 112.92" style="fill: rgb(224, 224, 224); transform-origin: 93.195px 121.185px;" id="elvewk074n6f8" class="animable"></polygon><polygon points="63.95 118.19 68.13 112.92 83.45 121.77 83.45 129.45 63.95 118.19" style="fill: rgb(235, 235, 235); transform-origin: 73.7px 121.185px;" id="elnadxp46542c" class="animable"></polygon><polygon points="83.45 121.77 98.76 112.92 83.44 104.08 68.13 112.92 83.45 121.77" style="fill: rgb(245, 245, 245); transform-origin: 83.445px 112.925px;" id="els2r9lmkpg4" class="animable"></polygon><g id="eljpb6t0aq52"><circle cx="83.45" cy="98.07" r="15.31" style="fill: rgb(235, 235, 235); transform-origin: 83.45px 98.07px; transform: rotate(-76.72deg);" class="animable" id="eliwly5hqbmyb"></circle></g><g id="el5r6a3z3ifhs"><path d="M88,106.68c-8.76,4.36-18.21-1.89-19.55-5.85A15.3,15.3,0,1,0,95.9,89.17C97.59,92.52,96.88,102.24,88,106.68Z" style="opacity: 0.05; transform-origin: 83.6319px 101.311px;" class="animable" id="elg3niuaj5fpd"></path></g><path d="M87,87.83c1.74,3,0,7.3-3.94,9.56S74.5,99,72.75,96s0-7.3,4-9.57S85.21,84.81,87,87.83Z" style="fill: rgb(240, 240, 240); transform-origin: 79.8734px 91.9067px;" id="el26535lhnep1h" class="animable"></path><g id="elp59jyvks3jo"><polygon points="57.59 301.97 53.23 303.37 54.2 310.6 54.2 303.93 57.59 301.97" style="opacity: 0.1; transform-origin: 55.41px 306.285px;" class="animable" id="elicotn33nqlm"></polygon></g><g id="eleuhs9138tjf"><polygon points="54.2 310.6 54.79 304.27 57.59 301.97 54.2 303.93 54.2 310.6" style="opacity: 0.3; transform-origin: 55.895px 306.285px;" class="animable" id="elz2jep31ir2h"></polygon></g><g id="elxw92pke0sgo"><polygon points="122.44 309.56 124.09 301.97 124.09 308.61 122.44 309.56" style="opacity: 0.1; transform-origin: 123.265px 305.765px;" class="animable" id="elszlrep6egvo"></polygon></g><g id="eltedk476mgf"><polygon points="124.09 301.97 124.9 308.14 124.09 308.61 124.09 301.97" style="opacity: 0.3; transform-origin: 124.495px 305.29px;" class="animable" id="eln9g78lbybo"></polygon></g><g id="elbey36iscond"><polygon points="54.01 279.14 49.33 284.23 49.33 289.86 50.43 284.89 54.01 279.14" style="opacity: 0.1; transform-origin: 51.67px 284.5px;" class="animable" id="elfo5ynrnbyt6"></polygon></g><g id="el58rs28i5fqn"><polygon points="54.01 279.14 51.3 285.37 49.33 289.86 50.43 284.89 54.01 279.14" style="opacity: 0.3; transform-origin: 51.67px 284.5px;" class="animable" id="el5lnvyo6wede"></polygon></g><g id="eltj0tzapt6kl"><polygon points="88.32 188.54 93.2 191.36 93.2 200.39 94.71 190.49 88.32 188.54" style="opacity: 0.1; transform-origin: 91.515px 194.465px;" class="animable" id="elpco7odeh7c9"></polygon></g><g id="el4nspn35qwvp"><polygon points="88.32 188.54 92.02 192.04 93.2 200.39 93.2 191.36 88.32 188.54" style="opacity: 0.3; transform-origin: 90.76px 194.465px;" class="animable" id="elk3yjurwrmu"></polygon></g><g id="elgl6a7lhlsvg"><polygon points="66.35 161.83 63.96 163.22 63.96 171.58 65.16 163.91 66.35 161.83" style="opacity: 0.3; transform-origin: 65.155px 166.705px;" class="animable" id="elu6z38x1fxr8"></polygon></g><g id="el9vqt7swg7dw"><polygon points="66.35 161.83 63.23 162.8 63.96 171.58 63.96 163.22 66.35 161.83" style="opacity: 0.1; transform-origin: 64.79px 166.705px;" class="animable" id="el1ydgj788uqa"></polygon></g><g id="elesca0bf7jgw"><polygon points="102.94 196.99 103.87 188.26 103.87 196.45 102.94 196.99" style="opacity: 0.3; transform-origin: 103.405px 192.625px;" class="animable" id="el5suroema10h"></polygon></g><g id="eldpuxqzx6jih"><polygon points="103.87 188.26 104.73 195.96 103.87 196.45 103.87 188.26" style="opacity: 0.1; transform-origin: 104.3px 192.355px;" class="animable" id="el7z6k7cxngi"></polygon></g></g></g><g id="freepik--Character--inject-20" class="animable animator-active" style="transform-origin: 245.238px 254.178px;"><g id="freepik--Ninja--inject-20" class="animable" style="transform-origin: 245.238px 254.178px;"><g id="freepik--Katana--inject-20" class="animable" style="transform-origin: 242.698px 169.767px;"><path d="M195.6,114.41l-4.37,4.34a1.92,1.92,0,0,1-1.47.51,1.88,1.88,0,0,1-1.09-.52L152.34,82.1a1.85,1.85,0,0,1,0-2.58l4.37-4.34a1.82,1.82,0,0,1,2.56,0l36.35,36.66a1.91,1.91,0,0,1,.52,1.09A1.83,1.83,0,0,1,195.6,114.41Z" style="fill: rgb(38, 50, 56); transform-origin: 173.982px 96.9602px;" id="elleoj1fjfq2" class="animable"></path><path d="M187.43,103.6l-1.79-1.8-5.14,0,0-5.11-1.79-1.81,0,6.91-6.91,0,1.79,1.81,5.11,0v5.14l1.79,1.81,0-6.92ZM168.9,84.91l-1.79-1.8-5.12,0L162,78l-1.82-1.83,0,6.91-6.91,0,1.81,1.84,5.12,0,0,5.11L162,91.8l0-6.92Zm9.27,9.35-1.8-1.81-5.11,0V87.29l-1.79-1.81,0,6.92-6.92,0,1.79,1.81,5.14,0,0,5.12,1.79,1.8,0-6.91Zm18,18.68a1.91,1.91,0,0,0-.52-1.09l-.73-.73-5.11,0,0-5.11L188,104.17l0,6.92-6.92,0,1.8,1.8,5.11,0,0,5.11.73.74a1.88,1.88,0,0,0,1.09.52l0-6.34Z" style="fill: #B42FCB; transform-origin: 174.72px 97.715px;" id="elt3txhkkzvyd" class="animable"></path><path d="M196.19,118.58c-4.43,4.39-8.84,7.13-9.85,6.12s1.78-5.4,6.21-9.79,8.84-7.14,9.84-6.13S200.62,114.18,196.19,118.58Z" style="fill: rgb(69, 90, 100); transform-origin: 194.364px 116.74px;" id="eluf9mw88sf7m" class="animable"></path><path d="M333.58,264.88,190.5,120.58l6.94-6.88L323.07,240.39a36.36,36.36,0,0,1,10.51,24.49Z" style="fill: rgb(240, 240, 240); transform-origin: 262.04px 189.29px;" id="eloy4g56dpn7" class="animable"></path><path d="M194,117.14,326.58,250.88a25,25,0,0,1,7,14h0L190.5,120.58Z" style="fill: rgb(224, 224, 224); transform-origin: 262.04px 191.01px;" id="elezoa265jkg7" class="animable"></path><g id="elh45qs8yychj"><path d="M194,117.14,326.58,250.88a25,25,0,0,1,7,14h0L190.5,120.58Z" style="opacity: 0.1; transform-origin: 262.04px 191.01px;" class="animable" id="el8n9402wmrzb"></path></g><path d="M179.31,125.93c1.1-5.73,6.57-9,2.4-14.21L160.78,90.61s-.72,9.86-.26,11.18a81.88,81.88,0,0,1,2.76,9.93,30.86,30.86,0,0,1-.1,7.44C163.85,124.13,171.45,132.07,179.31,125.93Z" style="fill: rgb(255, 189, 167); transform-origin: 171.811px 109.387px;" id="elxi2yd1b52" class="animable"></path><path d="M166.07,82.06c5.07-.65,6.89-.84,8,1.18a28.51,28.51,0,0,1,1.62,3.47,8.36,8.36,0,0,1,4.06,1.47c1.54,1.28,3.28,4.76,3.28,4.76s.54-.78,2.06,1.62,3.94,8,.9,7.58c-2.68-.35-4.24-4.27-4.24-4.27s-2,1-4.4-3c-.78-1.28-2.11-3.77-2.11-3.77s-1.77,2.36-3.84-.53A31.85,31.85,0,0,1,169.94,86Z" style="fill: rgb(240, 153, 122); transform-origin: 176.759px 91.8876px;" id="elwuaohtm3il" class="animable"></path><path d="M180.61,122.29c2.33-2.69,6.44-6.18,6.63-10.88s-.33-8.65-.49-12.13,0-5.76-2-5.22c-2.78.77-3.74,3.11-3.57,7,.11,2.78-.73,8.09-3.05,7Z" style="fill: rgb(255, 189, 167); transform-origin: 182.706px 108.135px;" id="elvr7yuxduh1" class="animable"></path><path d="M169.92,99.88c3.27,3.69,6.3,6.29,7.2,12.36s.34,7.8.34,7.8a17.69,17.69,0,0,0,.71-8.78,14,14,0,0,0-1.63-4.76Z" style="fill: rgb(240, 153, 122); transform-origin: 174.174px 109.96px;" id="ellotigl91ip" class="animable"></path></g><g id="freepik--Bottom--inject-20" class="animable" style="transform-origin: 242.486px 325.319px;"><path d="M357.88,368.45c-2.35-4.62-5.72-8.1-17.78-11.95S324,348.22,316,348.39c-4.84.11-6.75,2.08-6.77,4.28,0,.28,0,1.39,0,1.66a6.21,6.21,0,0,0,2.88,4.74c4.08,2.83,11.46,4.34,15.26,8.56,5.55,6.18,11.87,10.61,21.6,10.59,6.67,0,9.74-2.08,9.76-5.12,0-.28,0-1.39,0-1.66A6.56,6.56,0,0,0,357.88,368.45Z" style="fill: rgb(55, 71, 79); transform-origin: 333.98px 363.303px;" id="elxuxb1nz6jpe" class="animable"></path><path d="M316,348.39c-8.58.2-8,6.21-3.9,9.05s11.46,4.34,15.26,8.57c5.55,6.18,11.87,10.61,21.6,10.59,8.7,0,11.31-3.53,8.95-8.15s-5.72-8.1-17.78-11.95S324,348.22,316,348.39Z" style="fill: rgb(38, 50, 56); transform-origin: 333.974px 362.493px;" id="eldv2q4b5w738" class="animable"></path><path d="M361.35,275.75s-26.3,56.46-28.42,61.65c-1,2.5-1.14,4.6,1.95,7.48,6.25,5.8,12.88,10.16,17.79,14,3,2.35,4.87,4.61,5.19,8.66.16,2-.05,4.09-2.44,4.09s-6-4.45-6.81-3.12c2,1.91,4.22,2.77,4.37,3.9-.12,1.11-1.15,3-4.91,2.35a17.18,17.18,0,0,1-3.62-1.61c-3.36-1.7-7.08-1.56-10.33-3.47-2.84-1.67-6.51-7.08-9.34-8.77-2.34-1.4-6.88-2.83-9.45-3.78-3.29-1.21-4.42-3.1-4.77-5.21-.25-1.51,1.1-4.93,2-6.56a22.84,22.84,0,0,0,2.61-6c.53-1.9,1.16-6.71,1.55-9.19,3-18.49.74-31.2,7.38-46.44C329.93,270.37,361.35,275.75,361.35,275.75Z" style="fill: rgb(69, 90, 100); transform-origin: 335.94px 324.786px;" id="elqdcr4phdnte" class="animable"></path><path d="M319,305.78s6.64,15,18.49,21.42l2.47-5.37c-5.17-2.53-14.54-11.95-20-27.57Z" style="fill: rgb(38, 50, 56); transform-origin: 329.48px 310.73px;" id="el10m2ahz4bk7" class="animable"></path><path d="M348.11,361.35a9.37,9.37,0,0,0-.26-6.08l-4.42-3.3s3.5,3.93,2.78,8Z" style="fill: rgb(38, 50, 56); transform-origin: 345.963px 356.66px;" id="el3jnuc4nymjt" class="animable"></path><path d="M348.1,362.34h0c.42-1-.6-2.38-1.94-2.85s-3.58.83-3.84,1.84,2.11,2.59,2.86,2.59c2.11,1.73,2.49,3.83,3.43,4.6a1.43,1.43,0,0,0,1.22,0C350.78,366,349.14,363.55,348.1,362.34Z" style="fill: rgb(55, 71, 79); transform-origin: 346.208px 364.024px;" id="el1zqeo169zto" class="animable"></path><path d="M348.19,361.86a2.71,2.71,0,0,0-2.52,1.45,3.61,3.61,0,0,1,2.43-1h0A1.11,1.11,0,0,0,348.19,361.86Z" style="fill: rgb(38, 50, 56); transform-origin: 346.93px 362.584px;" id="elitik23jcq99" class="animable"></path><path d="M344.43,363a16.33,16.33,0,0,0-12.33,6.57l-5-4.81s4.17-5.62,16-3.37Z" style="fill: rgb(38, 50, 56); transform-origin: 335.765px 365.214px;" id="el2ev036lh44i" class="animable"></path><path d="M314.91,340.26c3.88,2.9,11.43,4.17,17.57,1.2-.16-.76,1.58-6.63,1.58-6.63-3.45,3.52-13.14,4.37-18.11-.06Z" style="fill: rgb(38, 50, 56); transform-origin: 324.485px 338.963px;" id="elr4m90ksutna" class="animable"></path><path d="M328.59,342.77s-7.93,7.87-7.56,18.05l-6.12-2.76s-1.13-9,8.95-16Z" style="fill: rgb(38, 50, 56); transform-origin: 321.731px 351.44px;" id="el55sgytxtmt" class="animable"></path><path d="M326.72,337.79a5.45,5.45,0,0,1,.43,5.22c.58.7,4.26.51,5.54-1s1.24-5.09.07-6.17C331.55,335.05,326.85,335.91,326.72,337.79Z" style="fill: rgb(55, 71, 79); transform-origin: 330.182px 339.473px;" id="elepg6mdemryl" class="animable"></path><path d="M316.9,329a61.68,61.68,0,0,0,24.85-11l3.39-7.34s-16.55,9.95-27.33,11.08Z" style="fill: rgb(38, 50, 56); transform-origin: 331.02px 319.83px;" id="elem3ynwvgjnw" class="animable"></path><path d="M230.7,293.47c19.29-14.33,37.83-17.56,62.75-17.56,8.87,0,29.08,4.29,27.68,11.64-7.91,14.11-2,17.09.42,18.32a33.37,33.37,0,0,0,25,1.77c9.75-3.73,9.67-9.11,10.58-12.74,2-7.8,7.39-25.75,7.65-30.35,1.13-22.66-60.56-31.23-82.65-42.69C282.12,221.86,238.52,247,230.7,293.47Z" style="fill: rgb(55, 71, 79); transform-origin: 297.748px 265.567px;" id="elzrfe22wyouf" class="animable"></path><path d="M254.07,275.61c-5.3,0,7.84-10.87,18.28-14.86l-31.19,4.61a79.74,79.74,0,0,0-10.46,28.11c18.54-13.78,36.4-17.29,59.89-17.54h0C272.84,274.21,259.55,275.63,254.07,275.61Z" style="fill: rgb(38, 50, 56); transform-origin: 260.645px 277.11px;" id="elm3mdziqbgp" class="animable"></path><path d="M318.61,282.61c1.74,1.35,2.73,2.89,2.55,4.6h0c2.31-8,4.77-11.83,11.3-20.54C332.48,266.68,321.64,273.09,318.61,282.61Z" style="fill: rgb(38, 50, 56); transform-origin: 325.535px 276.94px;" id="elg24j9ym3m2i" class="animable"></path><path d="M277.82,211,215,209.06c-13.7,17.06-14.58,26-17.38,34.94s-7.59,23.79-13.42,33.58-15.91,21.2-28,34.43-11.08,27.68-5.87,34.57l1.52-4s5.12-2.74,14.56,3.7,9.41,10.18,9.41,10.18L172.43,361s8.82,5.42,19.55-2.91,16-25.77,25-41.1c9.33-16,26.69-51.14,55.42-56.22,0,0-6.49-.83,13.56-30.1Z" style="fill: rgb(55, 71, 79); transform-origin: 216.303px 285.897px;" id="el2he99s584yx" class="animable"></path><path d="M132.37,394.74c-2,4.34-5.82,11.33-7.87,15.81A51.27,51.27,0,0,0,120.2,426c-.38,4.67,3.75,16.58,15.32,15.51,9.61-.89,10.61-13.47,11.45-23.24.9-10.45,1-19.74,1-19.74Z" style="fill: rgb(38, 50, 56); transform-origin: 134.073px 418.159px;" id="elodeqhuezu8e" class="animable"></path><path d="M127.66,436.3a3.16,3.16,0,0,0,3.22-1.55c.61-.93,1.4-2.68,1.89-3.67,1-2,3.54-2.05,2.64.55a10.84,10.84,0,0,0-.91,4.05,3.31,3.31,0,0,0,2.25,3.18c1.33.32,2.65-.55,3.65-1.48,3.76-3.52,4.6-7.72,5.61-12.48,1.12-5.33,1.17-10.8,1.86-16.18a68.83,68.83,0,0,1,12.28-31.1c6.12-8.56,9.27-12.8,15.71-21.12,1.3-9-15.84-18.4-24-13.88-6.69,17.25-13.4,35.73-15.66,42s-3.08,8.32-4.32,11.15c-1.52,3.45-3.52,7.36-5.23,11.28-2.49,5.73-4.71,11.76-5,18.06C121.53,428.3,123.51,435.48,127.66,436.3Z" style="fill: rgb(69, 90, 100); transform-origin: 148.787px 390.188px;" id="elalaxyfezgv9" class="animable"></path><path d="M138.42,426s3.94.5,8.21-4.82a31.75,31.75,0,0,0,1-9.92s-1.7,8.31-8.28,12.4Z" style="fill: rgb(38, 50, 56); transform-origin: 143.051px 418.636px;" id="elpbq4yk5ir8" class="animable"></path><path d="M134.83,422.36a20.66,20.66,0,0,1-7-17.94,15.68,15.68,0,0,0-3.64,8.79s2.49,8.42,9.9,11.84Z" style="fill: rgb(38, 50, 56); transform-origin: 129.51px 414.735px;" id="elx495kgdpbnl" class="animable"></path><path d="M133.35,430.28a40.59,40.59,0,0,1,1.48-7.92c.45-1.16,4.68.09,4.47,1.34a25.36,25.36,0,0,1-3.73,7.26A1.7,1.7,0,0,1,133.35,430.28Z" style="fill: rgb(55, 71, 79); transform-origin: 136.329px 426.516px;" id="elr1qrh1ag9pc" class="animable"></path><path d="M138.51,425.84c-.54.74-3.43.18-4-.59,0,0,.24.93,1.81,1.38a2.8,2.8,0,0,0,1.77.1Z" style="fill: rgb(38, 50, 56); transform-origin: 136.51px 426.039px;" id="elu0jcng5rp2q" class="animable"></path><path d="M129.54,400.9C133.8,395,143,391.79,143,391.79s5.59,8.4,4.94,15.29a107.59,107.59,0,0,0,2.7-10.67l-4-7.91L142.2,387a35.39,35.39,0,0,0-8.85,5.4A73.82,73.82,0,0,0,129.54,400.9Z" style="fill: rgb(38, 50, 56); transform-origin: 140.09px 397.04px;" id="elukscm15md8r" class="animable"></path><path d="M144.79,386.45c-5.88-2-7.34-5.18-7.34-5.18l-1.87,5.19c3.66,5.84,10,7.34,16.65,5.61,0,0,2.36-5.23,2.29-5.09S151.3,388.64,144.79,386.45Z" style="fill: rgb(38, 50, 56); transform-origin: 145.051px 387.008px;" id="el1wdo5jbk8ae" class="animable"></path><path d="M141.9,385.38c-1.29,1.11-2.25,5.22-1.81,6.21s4.2,2.2,5.51,1.65,2.29-5,2-5.88C147,385.72,142.78,384.63,141.9,385.38Z" style="fill: rgb(55, 71, 79); transform-origin: 143.816px 389.258px;" id="eluhcon28n4if" class="animable"></path><path d="M139,377.14c4.78-3.92,17.66-5.31,24.94-4.72l3.11-4.25s-13.37-3.8-26.12,3.71Z" style="fill: rgb(38, 50, 56); transform-origin: 153.025px 372.174px;" id="el8b038vmg9so" class="animable"></path><path d="M156.24,383.74s-2.4-14.38-10.9-23.89l1.88-5a39.41,39.41,0,0,1,8.53,12.46c3.21,7.52,3.43,11.7,3.43,11.7Z" style="fill: rgb(38, 50, 56); transform-origin: 152.26px 369.295px;" id="elxlg5p20dntj" class="animable"></path><path d="M148,352.92a51.67,51.67,0,0,1,17.61-3.64c3.74,6.19,3.83,15.68,3.83,15.68l3.63-4.75c0-7.93-5.43-16.12-5.43-16.12a63.24,63.24,0,0,0-17.74,3.84Z" style="fill: rgb(38, 50, 56); transform-origin: 160.535px 354.525px;" id="eldraix96bfcp" class="animable"></path><path d="M151.89,342.62s13.11-2.86,24,13.88l4.43-5.1s-1-5.58-9.39-11.07a22.67,22.67,0,0,0-16.7-3.68Z" style="fill: rgb(38, 50, 56); transform-origin: 166.105px 346.412px;" id="elxhem1vbe70b" class="animable"></path></g><g id="freepik--Top--inject-20" class="animable" style="transform-origin: 245.238px 167.227px;"><path d="M335.73,177.12c12.86,2.7,32.44,8.16,37.29,8.51,0,0,3.26,12.23-2.45,17.25-6.23-.52-24.55,0-39.67-1.3C326.76,201.14,321.87,180.12,335.73,177.12Z" style="fill: rgb(69, 90, 100); transform-origin: 350.256px 190px;" id="eltnj03wm3ql" class="animable"></path><path d="M274,133c6.1-.34,12.12,2.63,20.26,9.59s21.05,20.73,30.85,25.64c5.56,2.78,11,3,15,5.59a4,4,0,0,1,1.55,4.66l-5.92-1.32c-5.7,1.6-10.47,20.26-4.83,24.46l4.31.32a6.15,6.15,0,0,1-5.23,4.78c-5,.92-11.28-1.14-22-8.66s-23.27-19.88-26.75-11.33c0,0-7.29-3.79-11-25C267.87,148,274,133,274,133Z" style="fill: rgb(55, 71, 79); transform-origin: 305.792px 169.949px;" id="elr0fpu32w9g" class="animable"></path><path d="M370.57,202.88c10,1.32,15.11-2.7,17.95-11.2a97.25,97.25,0,0,0,1.76-10.79c.29-2.7.73-5.37,1.05-8.06.14-1.2.55-2.37.66-3.57a15,15,0,0,0,0-3c-.13-.64-.9-2.48-2.05-1.58a3,3,0,0,0-.53.94,15.31,15.31,0,0,0-.81,2.07c-.39,1.23-.57,2.61-.88,3.85a21.42,21.42,0,0,0-.31,2.13c-.24,2-.58,2.56-.87,2.49s.05-2.71.1-3.61a30.94,30.94,0,0,1,1.55-7.36c.55-1.84.83-4-.33-5.66-.19-.28-.49-.73-.86-.75s-.7.58-.88.93a36.16,36.16,0,0,0-2,4.92A29.71,29.71,0,0,0,383,169.3a41.93,41.93,0,0,1-1,5.76c-.61.52-.62-1.22-.6-1.66.09-1.51.56-5.88.6-6.56a18.32,18.32,0,0,1,.37-2.87,18.05,18.05,0,0,0,.45-5.52c-.11-1-1-3.59-2.47-2.86-.49.24-.72,1-.9,1.48a23.58,23.58,0,0,0-1.07,4c-.37,2.09-.64,3.13-1.09,6.14-.18,1.23-.34,2.27-.61,4.22a15.94,15.94,0,0,1-.53,3c-.55.43-.67-.91-.69-1.26a21.47,21.47,0,0,1,.33-3.66c.36-2.14.53-2.47.82-4.19a13.6,13.6,0,0,0,.15-4.8c-.15-.81-.85-2.11-1.72-2.31-1.28-.3-1.53,1.63-1.77,2.43-.77,2.56-1.45,5.17-2.1,7.76a26.37,26.37,0,0,0-.79,5.38c-.06,1.65.46,4.31-.58,5.72-.84,1.13-1.42-.91-1.69-1.58-.59-1.43-1-2.94-1.75-4.32-2.07-4-5.6-2.92-4.82.54a64.71,64.71,0,0,1,1.57,12.87C363.13,191.19,363.11,201.67,370.57,202.88Z" style="fill: rgb(255, 189, 167); transform-origin: 376.747px 179.294px;" id="elbcmvkdk44qe" class="animable"></path><path d="M374.18,184.5s6.08,6.34,3.88,13.1a9,9,0,0,0,1.09-9.07A6.87,6.87,0,0,0,374.18,184.5Z" style="fill: rgb(240, 153, 122); transform-origin: 377.043px 191.05px;" id="elxrq9539n0o" class="animable"></path><path d="M376.14,174.5a12.1,12.1,0,0,1,5.33.17l.13-3.68a7.37,7.37,0,0,0-4.83-.26Z" style="fill: rgb(69, 90, 100); transform-origin: 378.87px 172.556px;" id="el17xu5qys48ei" class="animable"></path><path d="M228.65,125.69c-9.58,3.6-8.92,4.66-4,7.45s23.2,8.75,29.56,7.82,8.52-9.11,6.85-10.78-4.86-2-4.86-2Z" style="fill: rgb(38, 50, 56); transform-origin: 241.371px 133.374px;" id="el2oj5k1r110r" class="animable"></path><path d="M212.67,201c-9.82-4.76-29.41-1.52-43.13,16.83-10.92,14.6-21.61,35.59-40.28,35.41S107.41,239,107.41,239l-9,12.13c1.87,4.93,10,17.65,30.64,16.47,21.12-1.21,34.45-23.12,41.43-34.2,13.8-21.89,26.35-29.67,41.86-26.52Z" style="fill: #B42FCB; transform-origin: 155.54px 233.355px;" id="el8m32pgjtcjc" class="animable"></path><g id="elmwzjf0k9ekm"><path d="M212.67,201c-9.82-4.76-29.41-1.52-43.13,16.83-10.92,14.6-21.61,35.59-40.28,35.41S107.41,239,107.41,239l-9,12.13c1.87,4.93,10,17.65,30.64,16.47,21.12-1.21,34.45-23.12,41.43-34.2,13.8-21.89,26.35-29.67,41.86-26.52Z" style="opacity: 0.3; transform-origin: 155.54px 233.355px;" class="animable" id="el2rb9dw0krrm"></path></g><g id="elpymoeltmrb"><g style="opacity: 0.2; transform-origin: 179.42px 226.399px;" class="animable" id="ellxglbh9cu6"><path d="M144.67,251.9a34.17,34.17,0,0,0,9-6.93,89.46,89.46,0,0,0,7.33-8.7c2.28-3,4.44-6.17,6.53-9.34l3.1-4.78c1-1.61,2.06-3.22,3.22-4.73a43.93,43.93,0,0,1,17.79-14.13,31.12,31.12,0,0,1,11.23-2.39A29.83,29.83,0,0,1,214.17,203l-.37.93a28.73,28.73,0,0,0-10.94-2.17,30.19,30.19,0,0,0-11,2.21,43.17,43.17,0,0,0-17.67,13.74c-1.17,1.48-2.22,3.05-3.25,4.65l-3.16,4.76c-2.13,3.15-4.32,6.26-6.64,9.28a91.3,91.3,0,0,1-7.44,8.64A34.38,34.38,0,0,1,144.67,251.9Z" id="elt5shh58svha" class="animable" style="transform-origin: 179.42px 226.399px;"></path><path d="M168.28,231.89A86.44,86.44,0,0,1,176,219.71a50.66,50.66,0,0,1,10.14-10.28,25.43,25.43,0,0,1,6.41-3.45,43.85,43.85,0,0,1,7.06-1.74,38.43,38.43,0,0,1,7.27-.42,29.59,29.59,0,0,1,7.25,1.13l-.33.94a28.33,28.33,0,0,0-7-1.19,36.88,36.88,0,0,0-7.12.29,42.61,42.61,0,0,0-7,1.58,24.81,24.81,0,0,0-6.32,3.27,50.11,50.11,0,0,0-10.24,10A86.79,86.79,0,0,0,168.28,231.89Z" id="elxewx1yxgdah" class="animable" style="transform-origin: 191.205px 217.842px;"></path></g></g><path d="M214,135.83s-8,2.51-9.46,8.09c-.74,2.74-2.47,10.39,1.61,26.68,2.22,8.85,5.92,19.13,6.71,26.85l-.67,12.87c-6.85,10.5-8,13.56-10.85,21.64,6.25,9.51,38.74,12.85,58.45,10.54l6.49-15.91,4.48,13.28c8.22-2,15.16-10.65,16-15.86a148,148,0,0,1-7-14.95l.23-12.54s4.17-31.68,3.88-36.93c-1-17.92-5.81-23-9.86-26.63-5.52-1-12.82-1.6-12.82-1.6l-20.3-1.18Z" style="fill: rgb(69, 90, 100); transform-origin: 244.05px 186.692px;" id="elmm291fqbme" class="animable"></path><path d="M280.49,210.82h0l-.72-1.76,0-6.93c-.59.71-6.24,7-27,8.36-24.19,1.58-39.88-7.61-39.88-7.61l-.67,7.44c-.44.66-.85,1.3-1.24,1.91,0,0,14.56,10.17,42,8.47C275.21,219.33,280.49,210.82,280.49,210.82Z" style="fill: rgb(55, 71, 79); transform-origin: 245.735px 211.511px;" id="el2637sp4q5l7" class="animable"></path><path d="M218.88,209.22c.18,10.16-3.3,36.47-21.28,41.54-19.61,5.53-30-3.39-46.38-14-14.31-9.27-27.27-6.24-33.33-3.41l-1.8-12.46s20.58-7,36.56,4.77c16.72,12.28,27.24,17.64,40,16.13,13.54-1.61,19.28-20.9,19.74-34.91Z" style="fill: #B42FCB; transform-origin: 167.488px 229.665px;" id="elm4zdetm5cg" class="animable"></path><g id="elg7gtg2o4imu"><path d="M218.88,209.22c.18,10.16-3.3,36.47-21.28,41.54-19.61,5.53-30-3.39-46.38-14-14.31-9.27-27.27-6.24-33.33-3.41l-1.8-12.46s20.58-7,36.56,4.77c16.72,12.28,27.24,17.64,40,16.13,13.54-1.61,19.28-20.9,19.74-34.91Z" style="opacity: 0.15; transform-origin: 167.488px 229.665px;" class="animable" id="elon9bynjzu2"></path></g><g id="elbot724q6g1"><g style="opacity: 0.15; transform-origin: 200.245px 228.181px;" class="animable" id="eljyapp882hn"><path d="M186,245.94a23.89,23.89,0,0,0,6.31-.6,10.13,10.13,0,0,0,1.53-.4c.5-.16,1-.29,1.5-.48a21.93,21.93,0,0,0,2.87-1.31,23.88,23.88,0,0,0,9-8.61,12.32,12.32,0,0,0,.82-1.34l.71-1.41.7-1.41a15.4,15.4,0,0,0,.57-1.47c.36-1,.75-2,1.07-3l.79-3.06c.12-.51.27-1,.37-1.54l.24-1.56.5-3.12c.22-2.1.33-4.21.51-6.31l1,.05c-.22,2.13-.39,4.26-.65,6.37l-.57,3.16L213,221.5c-.11.53-.27,1-.41,1.55l-.83,3.1c-.34,1-.75,2-1.12,3a15.87,15.87,0,0,1-.61,1.48l-.73,1.43-.73,1.43a14.82,14.82,0,0,1-.86,1.36,24.29,24.29,0,0,1-9.33,8.61,21.91,21.91,0,0,1-2.94,1.27c-.5.18-1,.3-1.53.45a10.41,10.41,0,0,1-1.56.37A24.6,24.6,0,0,1,186,246Z" id="eljedus4vo6w" class="animable" style="transform-origin: 200.245px 228.181px;"></path></g></g><g id="elh33yunvmq39"><g style="opacity: 0.15; transform-origin: 212.07px 226.005px;" class="animable" id="elqhqftouziac"><path d="M216.8,211.09a42.72,42.72,0,0,1-.45,8,50.22,50.22,0,0,1-1.76,7.77,46.35,46.35,0,0,1-3,7.38,44.86,44.86,0,0,1-4.28,6.68,44.42,44.42,0,0,0,4.05-6.79,45.78,45.78,0,0,0,2.74-7.41A49.53,49.53,0,0,0,215.6,219a41.07,41.07,0,0,0,.2-7.83Z" id="el0jqb14jb78ut" class="animable" style="transform-origin: 212.07px 226.005px;"></path></g></g><path d="M280,196.52s-5.26,7.1-27.27,8.54c-24.19,1.58-39.88-7.61-39.88-7.61l-.67,12.87s13.32,9.89,40.79,8.19c22.24-1.38,26.8-9.45,26.8-9.45Z" style="fill: #B42FCB; transform-origin: 246.09px 207.613px;" id="elxi5plbbhg08" class="animable"></path><g id="el3br01ce1gq3"><path d="M212.67,201c8.19,5.31,16.23,8.47,27.27,9,0,0-12.91,2-27.35-7.59Z" style="opacity: 0.15; transform-origin: 226.265px 205.587px;" class="animable" id="el7m9m3yhga1n"></path></g><g id="el0e8jenn7wng"><path d="M212.36,206.88s17.57,13.46,49.12,6.31c-21.54,2.45-37.31-.75-49-8.19Z" style="opacity: 0.15; transform-origin: 236.92px 210.142px;" class="animable" id="eltneqj563jxg"></path></g><g id="freepik--Head--inject-20" class="animable" style="transform-origin: 247.201px 108.687px;"><path d="M272,96c2-2.7-1-16.19-4.23-20.06-4.67-5.58-11.48-8.58-22.44-7.9-8.33.52-16.53,4-18.09,12.53-6.7,2-5.93,13-4.27,17.85,3.38,9.85,10,18.41,10.14,23.45Z" style="fill: rgb(38, 50, 56); transform-origin: 247.234px 94.9074px;" id="eljungjn22np" class="animable"></path><path d="M271.41,116.8c-1.32,4.76-4.07,8.24-8.47,8.93a37.48,37.48,0,0,1-6.94,0l.17,6a45.92,45.92,0,0,1-.2,17.7,63.32,63.32,0,0,1-22.55-16.47l-.63-20.44s-2.69,3.06-7.13.17a9.67,9.67,0,0,1-3-11.84c2.19-4.64,7.55-3.07,8.9-1.66s1.92,4,3.11,4c1.78,0,2.28-1.65,2.73-2.78a25,25,0,0,0,1.43-9,11.9,11.9,0,0,0,3.44-2.66,11.08,11.08,0,0,0,3-6.87c9.5-3,20.42-1.58,24.37,1.48,2.28,4,2.36,13.31,2.74,18.67C272.77,108,272.51,112.83,271.41,116.8Z" style="fill: rgb(255, 189, 167); transform-origin: 247.154px 114.826px;" id="el7cf9v2ror25" class="animable"></path><path d="M256,125.76c-4.86-.27-14.64-2.54-17.24-5.26s-3.72-8.26-3.72-8.26.4,7,2.41,10.11,7.1,4.44,10.19,5.21a77.53,77.53,0,0,0,8.45,1.28Z" style="fill: rgb(242, 143, 143); transform-origin: 245.565px 120.54px;" id="elfpge3yagv8d" class="animable"></path><path d="M252.93,99.05a2,2,0,1,1-2-2A2,2,0,0,1,252.93,99.05Z" style="fill: rgb(38, 50, 56); transform-origin: 250.93px 99.05px;" id="elx6xazz7qj9b" class="animable"></path><path d="M247.75,92.71l4.73.82a2.53,2.53,0,0,1-2.86,2A2.35,2.35,0,0,1,247.75,92.71Z" style="fill: rgb(38, 50, 56); transform-origin: 250.087px 94.1344px;" id="ellqrtmcrfgs" class="animable"></path><path d="M263.55,93.41l4.59-1.54a2.32,2.32,0,0,1-1.43,3A2.55,2.55,0,0,1,263.55,93.41Z" style="fill: rgb(38, 50, 56); transform-origin: 265.917px 93.4341px;" id="el75jmiio1u8m" class="animable"></path><path d="M267.78,98.92a2,2,0,1,1-2-2A2,2,0,0,1,267.78,98.92Z" style="fill: rgb(38, 50, 56); transform-origin: 265.78px 98.92px;" id="elqtsscr9xbu" class="animable"></path><polygon points="257.44 94.82 258.86 108.95 266.44 106.66 257.44 94.82" style="fill: rgb(240, 153, 122); transform-origin: 261.94px 101.885px;" id="elg4st65ve8et" class="animable"></polygon><path d="M252.91,112.24l8.14,1.8a4.1,4.1,0,0,1-4.88,3.31A4.37,4.37,0,0,1,252.91,112.24Z" style="fill: rgb(177, 102, 104); transform-origin: 256.937px 114.839px;" id="el5zmar9lwh2i" class="animable"></path><path d="M256.17,117.35a4.4,4.4,0,0,0,.51.05,3.78,3.78,0,0,0-3.79-3.68A4.31,4.31,0,0,0,256.17,117.35Z" style="fill: rgb(242, 143, 143); transform-origin: 254.785px 115.56px;" id="elzxv9m5kif1" class="animable"></path></g><path d="M231.56,99.28s8.5-10.67,26.44-11.59S272,96,272,96s2.62-1.21-.26-13C269.52,74,261,65.93,247.18,66.85S222,82.13,231.56,99.28Z" style="fill: rgb(55, 71, 79); transform-origin: 250.556px 83.0291px;" id="elji81c1fsk1" class="animable"></path><path d="M238.49,75.7C235.74,82,234.85,94.06,236,97.51l-4.5,4.28S228.32,85.66,238.49,75.7Z" style="fill: rgb(38, 50, 56); transform-origin: 234.76px 88.745px;" id="el5cnmvjz5yoe" class="animable"></path><path d="M233.21,101.88c2.42,2.52,10,5.22,15.79,4.14s10.93-5.27,13.93-4l1.51,2s5.41,1.57,8,0c0,0,1,8.49-1.67,14.94-2.48,6-5.25,7.54-9.75,7.76s-16.88-.45-23.27-5.5S233.21,101.88,233.21,101.88Z" style="fill: rgb(38, 50, 56); transform-origin: 252.792px 114.269px;" id="elczr4be6vck6" class="animable"></path><path d="M242.71,70.8c-8.73,6.74-9.48,23.46-9.27,30.61s.82,23.57,22.93,25.26v4.41l5.5.3s2.2,17.68-14.17,14.86c-11-1.89-23-12.66-27.06-11.8l-5.25,1.1s7.1-2.89,10.19-4.49c3.36-1.75,4.3-6.5,1.11-12-4.94-8.57-7.46-12.84-8-22s3-31.07,31.89-30.25A24.26,24.26,0,0,0,242.71,70.8Z" style="fill: rgb(55, 71, 79); transform-origin: 238.679px 106.661px;" id="el3j56xeqqp5s" class="animable"></path><path d="M265.53,132.5c-1.23-2.93-3.94-4.35-9.41-5.31l.07,1s3.18.27,4.86,2S260.57,140,254.2,141s-24.66-5-29.56-7.82-5.57-3.85,4-7.45l0-.89s-8,1.6-10,4a73.5,73.5,0,0,0-4.68,7c.78,6.38,16.19,18.77,30.07,23.69s22.44,1.35,23.72-10S266.51,134.84,265.53,132.5Z" style="fill: rgb(55, 71, 79); transform-origin: 241.032px 143.263px;" id="el0dhorypp0odl" class="animable"></path><path d="M261.05,130.18a3.6,3.6,0,0,1,.61,2.72,10.06,10.06,0,0,1-4.3,7.3,7.49,7.49,0,0,1-1.32.68,5.9,5.9,0,0,1-1.43.43,12.48,12.48,0,0,1-2.92.16,38.39,38.39,0,0,1-5.68-.75,91.83,91.83,0,0,1-11-3.05,58.57,58.57,0,0,1-10.4-4.53,49.42,49.42,0,0,0,5.26,2.06q2.67.95,5.38,1.74c3.61,1.06,7.24,2.11,10.92,2.8a40.59,40.59,0,0,0,5.53.83,11.7,11.7,0,0,0,2.72-.11,5.73,5.73,0,0,0,1.29-.35,6.07,6.07,0,0,0,1.21-.57,9.17,9.17,0,0,0,3.57-4,9.37,9.37,0,0,0,.88-2.63A3.64,3.64,0,0,0,261.05,130.18Z" style="fill: rgb(38, 50, 56); transform-origin: 243.163px 135.837px;" id="elx3orifs4c" class="animable"></path><path d="M225.37,142.55c4.31,4.9,17.78,14.1,30.33,13.3,9.29-.59,8.9-8.5,8.9-8.5s-.55,6.24-9,7.06S234,149.22,225.37,142.55Z" style="fill: rgb(38, 50, 56); transform-origin: 244.986px 149.224px;" id="elkqc3fpgnd4g" class="animable"></path><path d="M218.06,131.85c.27,2.42,2,6,11,10.7a102.42,102.42,0,0,0,17.15,7s-11.88-4.22-18.89-8.68S219,134.14,218.06,131.85Z" style="fill: rgb(38, 50, 56); transform-origin: 232.135px 140.7px;" id="elo2q6a8udcr" class="animable"></path><path d="M263.28,131.52c1.51,3,4.82,20.07-10.47,20.53C263.16,150.71,265.18,140.6,263.28,131.52Z" style="fill: rgb(38, 50, 56); transform-origin: 258.736px 141.785px;" id="elv8hlvlb9wmh" class="animable"></path><path d="M212.18,136.55a47.6,47.6,0,0,0-19.88,6.7c-7.41,4.35-35.62,17.31-40.07,25.13s-10,20.43-2.92,29.79c9.37,12.3,21.39,1.35,32.08-5.64,8.38-5.49,24.32-16,29.26-5.84C218.73,183.65,225.37,152.05,212.18,136.55Z" style="fill: rgb(55, 71, 79); transform-origin: 182.8px 170.14px;" id="eluzmg9rg5cna" class="animable"></path><path d="M156.57,197.54c3.73-1.84,11.15-4.35,14.6-14,3-8.29,5-43.66,8.14-57.56-3.86,2.91-13.24-1.13-16.13-6.77-1.1,8.61-18.66,44.57-18.51,56.83C144.79,185.14,149.64,201,156.57,197.54Z" style="fill: rgb(69, 90, 100); transform-origin: 161.99px 158.618px;" id="elj1i4q2j71vo" class="animable"></path></g></g></g><defs>     <filter id="active" height="200%">         <feMorphology in="SourceAlpha" result="DILATED" operator="dilate" radius="2"></feMorphology>                <feFlood flood-color="#32DFEC" flood-opacity="1" result="PINK"></feFlood>        <feComposite in="PINK" in2="DILATED" operator="in" result="OUTLINE"></feComposite>        <feMerge>            <feMergeNode in="OUTLINE"></feMergeNode>            <feMergeNode in="SourceGraphic"></feMergeNode>        </feMerge>    </filter>    <filter id="hover" height="200%">        <feMorphology in="SourceAlpha" result="DILATED" operator="dilate" radius="2"></feMorphology>                <feFlood flood-color="#ff0000" flood-opacity="0.5" result="PINK"></feFlood>        <feComposite in="PINK" in2="DILATED" operator="in" result="OUTLINE"></feComposite>        <feMerge>            <feMergeNode in="OUTLINE"></feMergeNode>            <feMergeNode in="SourceGraphic"></feMergeNode>        </feMerge>            <feColorMatrix type="matrix" values="0   0   0   0   0                0   1   0   0   0                0   0   0   0   0                0   0   0   1   0 "></feColorMatrix>    </filter></defs></svg>